<svg style="position: absolute; width: 0; height: 0; overflow: hidden;" version="1.1" xmlns="http://www.w3.org/2000/svg" xmlns:xlink="http://www.w3.org/1999/xlink">
<defs>
<symbol id="icon-Ikonice-01" viewBox="0 0 29 32">
<title>Ikonice-01</title>
<path d="M23.261 28.506h-17.624c-0.746-0.001-1.351-0.606-1.352-1.352v-22.308c0.001-0.746 0.606-1.351 1.352-1.352h17.624c0.746 0.001 1.351 0.606 1.352 1.352v22.307c-0.001 0.747-0.606 1.352-1.352 1.353zM5.638 4.016c-0.458 0.001-0.829 0.372-0.83 0.83v22.307c0.001 0.458 0.372 0.829 0.83 0.83h17.624c0.458-0.001 0.829-0.372 0.83-0.83v-22.307c-0.001-0.458-0.372-0.829-0.83-0.83h-17.624z"></path>
<path d="M16.436 16.031h-4.601v1.255h4.601c0.339-0.010 0.61-0.287 0.61-0.627s-0.271-0.618-0.61-0.627z"></path>
<path d="M19.050 20.249h-9.202c-0.005 0-0.011 0-0.017 0-0.347 0-0.628-0.281-0.628-0.628s0.281-0.628 0.628-0.628c0.006 0 0.012 0 0.018 0l9.201-0c0.005-0 0.011-0 0.017-0 0.347 0 0.628 0.281 0.628 0.628s-0.281 0.628-0.628 0.628c-0.006 0-0.012-0-0.018-0z"></path>
<path d="M19.050 23.213h-9.202c-0.005 0-0.011 0-0.017 0-0.347 0-0.628-0.281-0.628-0.628s0.281-0.628 0.628-0.628c0.006 0 0.012 0 0.018 0l9.201-0c0.005-0 0.011-0 0.017-0 0.347 0 0.628 0.281 0.628 0.628s-0.281 0.628-0.628 0.628c-0.006 0-0.012-0-0.018-0z"></path>
<path d="M19.050 17.286h-9.202c-0.005 0-0.011 0-0.017 0-0.347 0-0.628-0.281-0.628-0.628s0.281-0.628 0.628-0.628c0.006 0 0.012 0 0.018 0l9.201-0c0.005-0 0.011-0 0.017-0 0.347 0 0.628 0.281 0.628 0.628s-0.281 0.628-0.628 0.628c-0.006 0-0.012-0-0.018-0z"></path>
</symbol>
<symbol id="icon-Ikonice-02" viewBox="0 0 29 32">
<title>Ikonice-02</title>
<path d="M14.449 28.415c-6.849-0.005-12.4-5.559-12.4-12.409 0-6.853 5.556-12.409 12.409-12.409s12.409 5.556 12.409 12.409c0 3.427-1.389 6.529-3.634 8.774-2.234 2.245-5.327 3.634-8.744 3.634-0.014 0-0.028-0-0.041-0zM14.449 4.107c-6.562 0.004-11.88 5.324-11.88 11.887 0 6.565 5.322 11.887 11.887 11.887s11.887-5.322 11.887-11.887c0-3.282-1.33-6.254-3.481-8.405-2.14-2.151-5.103-3.482-8.376-3.482-0.012 0-0.025 0-0.037 0z"></path>
<path d="M16.876 18.875c-0.087-0.213-0.176-0.427-0.273-0.635-0.085-0.187-0.195-0.242-0.4-0.195-0.26 0.060-0.515 0.139-0.774 0.19-0.501 0.105-1.005 0.114-1.5-0.042-0.621-0.195-0.95-0.645-1.155-1.225h1.684c0.131 0 0.237-0.106 0.237-0.237v-0.53c0-0.131-0.106-0.237-0.237-0.237h-1.845c0-0.148 0-0.29 0-0.432h1.845c0.131 0 0.237-0.106 0.237-0.237v-0.533c0-0.131-0.106-0.237-0.237-0.237h-1.614c-0-0.001-0-0.002-0-0.003 0-0.005 0.001-0.009 0.004-0.013 0.193-0.44 0.475-0.793 0.939-0.977 0.538-0.213 1.089-0.208 1.643-0.095 0.263 0.053 0.522 0.134 0.784 0.193 0.19 0.044 0.303-0.013 0.386-0.19 0.095-0.207 0.182-0.416 0.269-0.627 0.082-0.198 0.034-0.339-0.153-0.448-0.041-0.024-0.089-0.048-0.139-0.067-0.784-0.306-1.585-0.418-2.413-0.287-0.582 0.095-1.126 0.293-1.595 0.658-0.592 0.458-0.976 1.063-1.198 1.774l-0.024 0.081h-0.831c-0.131 0-0.237 0.106-0.237 0.237v0.53c0 0.131 0.106 0.237 0.237 0.237h0.653v0.432h-0.653c-0.131 0-0.237 0.106-0.237 0.237v0.53c0 0.131 0.106 0.237 0.237 0.237h0.787c0.060 0.194 0.11 0.39 0.186 0.576 0.398 0.961 1.066 1.645 2.070 1.971 0.83 0.269 1.667 0.261 2.504 0.031 0.249-0.069 0.462-0.148 0.666-0.243 0.174-0.081 0.226-0.236 0.147-0.428v0z"></path>
</symbol>
<symbol id="icon-Ikonice-03" viewBox="0 0 29 32">
<title>Ikonice-03</title>
<path d="M14.449 28.415c-6.849-0.005-12.4-5.559-12.4-12.409 0-6.853 5.556-12.409 12.409-12.409s12.409 5.556 12.409 12.409c0 3.427-1.389 6.529-3.634 8.774-2.234 2.245-5.327 3.634-8.744 3.634-0.014 0-0.028-0-0.041-0zM14.449 4.107c-6.562 0.004-11.88 5.324-11.88 11.887 0 6.565 5.322 11.887 11.887 11.887s11.887-5.322 11.887-11.887c0-3.282-1.33-6.254-3.481-8.405-2.14-2.151-5.103-3.482-8.376-3.482-0.012 0-0.025 0-0.037 0z"></path>
<path d="M19.851 15.19h-4.592v-7.023c0-0.006 0-0.013 0-0.020 0-0.448-0.363-0.81-0.81-0.81s-0.81 0.363-0.81 0.81c0 0.007 0 0.014 0 0.021l-0 7.022h-0.81c-0.439 0.011-0.791 0.37-0.791 0.81s0.352 0.799 0.79 0.81l0.811 0v0.81c0.011 0.439 0.37 0.791 0.81 0.791s0.799-0.352 0.81-0.79l0-0.811h4.592c0.448 0 0.81-0.363 0.81-0.81s-0.363-0.81-0.81-0.81z"></path>
</symbol>
<symbol id="icon-minus" viewBox="0 0 32 32">
<title>minus</title>
<path d="M0 15.238h32v1.524h-32v-1.524z"></path>
</symbol>
<symbol id="icon-plus" viewBox="0 0 32 32">
<title>plus</title>
<path d="M32 15.238h-15.238v-15.238h-1.524v15.238h-15.238v1.524h15.238v15.238h1.524v-15.238h15.238z"></path>
</symbol>
<symbol id="icon-lista" viewBox="0 0 49 32">
<title>lista</title>
<path d="M12.598 0h36.223v7.364h-36.223v-7.364z"></path>
<path d="M12.598 11.858h36.223v7.364h-36.223v-7.364z"></path>
<path d="M12.598 24.546h36.223v7.364h-36.223v-7.364z"></path>
<path d="M7.562 3.79c0 2.093-1.697 3.79-3.79 3.79s-3.79-1.697-3.79-3.79c0-2.093 1.697-3.79 3.79-3.79s3.79 1.697 3.79 3.79v0z"></path>
<path d="M3.79 11.768c-2.093 0-3.79 1.697-3.79 3.79s1.697 3.79 3.79 3.79c2.093 0 3.79-1.697 3.79-3.79s-1.697-3.79-3.79-3.79v0z"></path>
<path d="M3.79 24.438c-2.093 0-3.79 1.697-3.79 3.79s1.697 3.79 3.79 3.79c2.093 0 3.79-1.697 3.79-3.79s-1.697-3.79-3.79-3.79v0z"></path>
</symbol>
<symbol id="icon-mapa" viewBox="0 0 32 32">
<title>mapa</title>
<path d="M27.314 4.686c2.895 2.895 4.685 6.895 4.685 11.313 0 8.837-7.163 16-16 16s-16-7.163-16-16c0-8.837 7.163-16 16-16 0 0 0.001 0 0.001 0 0.012-0 0.027-0 0.042-0 4.405 0 8.392 1.792 11.271 4.687l0.001 0.001zM25.899 25.9c1.889-1.879 3.241-4.297 3.805-7.003-0.405 0.529-0.808 0.76-1.057-0.628-0.257-2.266-2.335-0.817-3.641-1.621-1.375 0.927-4.466-1.802-3.941 1.276 0.81 1.387 4.375-1.858 2.598 1.080-1.134 2.051-4.145 6.591-3.75 8.945 0.049 3.43-3.504 0.716-4.728-0.423-0.823-2.279-0.28-6.262-2.434-7.377-2.338-0.102-4.344-0.313-5.25-2.927-0.547-1.87 0.58-4.653 2.584-5.083 2.933-1.843 3.984 2.158 6.731 2.232 0.854-0.894 3.182-1.177 3.375-2.18-1.805-0.319 2.289-1.518-0.173-2.199-1.359 0.156-2.234 1.406-1.512 2.467-2.632 0.614-2.717-3.809-5.247-2.414-0.064 2.205-4.132 0.715-1.406 0.268 0.938-0.409-1.527-1.595-0.196-1.379 0.654-0.035 2.854-0.806 2.259-1.328 1.225-0.76 2.255 1.822 3.454-0.059 0.866-1.445-0.363-1.713-1.448-0.98-0.612-0.685 1.080-2.165 2.573-2.805 0.498-0.213 0.972-0.329 1.336-0.296 0.752 0.869 2.142 1.016 2.215-0.105-1.765-0.86-3.84-1.363-6.033-1.363-3.149 0-6.056 1.037-8.398 2.788 0.682 0.269 1.048 0.638 0.427 1.108-0.483 1.439-2.442 3.371-4.163 3.098-0.852 1.444-1.462 3.137-1.724 4.942 1.433 0.551 1.765 1.495 1.454 1.811-0.74 0.639-1.188 1.549-1.422 2.543 1.14 6.685 6.89 11.71 13.813 11.71 3.865 0 7.365-1.566 9.898-4.098l-0 0z"></path>
</symbol>
<symbol id="icon-nis" viewBox="0 0 32 32">
<title>nis</title>
<path d="M16 10.182c-3.213 0-5.818 2.605-5.818 5.818s2.605 5.818 5.818 5.818c3.213 0 5.818-2.605 5.818-5.818-0.010-3.209-2.609-5.808-5.817-5.818h-0.001zM28.945 14.545c-0.721-6.018-5.464-10.736-11.431-11.413l-0.060-3.060h-2.909v3.055c-6.096 0.585-10.906 5.395-11.487 11.439l-3.059 0.052v2.909h3.055c0.714 6.021 5.46 10.742 11.432 11.413l0.059 3.060h2.909v-3.055c6.049-0.689 10.802-5.442 11.485-11.431l3.060-0.060v-2.909h-3.055zM16 26.182c-5.623 0-10.182-4.559-10.182-10.182s4.559-10.182 10.182-10.182c5.623 0 10.182 4.559 10.182 10.182 0 0.022 0 0.047 0 0.073 0 5.583-4.526 10.109-10.109 10.109-0.026 0-0.051-0-0.077-0l0.004 0z"></path>
</symbol>
<symbol id="icon-avi" viewBox="0 0 37 32">
<title>avi</title>
<path d="M0 16.004c0.043 0.772 0.567 1.412 1.275 1.626l13.625 4.122 0.5 9.377c0.026 0.381 0.278 0.697 0.622 0.816 0.094 0.036 0.196 0.055 0.302 0.055 0.003 0 0.006 0 0.008-0 0.002 0 0.004 0 0.007 0 0.274 0 0.52-0.12 0.689-0.31l4.812-5.328 6.82 4.721c0.286 0.205 0.643 0.329 1.029 0.33 0.874-0.005 1.602-0.621 1.779-1.443l5.66-28.866c0.012-0.055 0.019-0.119 0.019-0.184 0-0.512-0.415-0.926-0.926-0.926-0.126 0-0.246 0.025-0.356 0.071l-34.771 14.16c-0.651 0.29-1.097 0.931-1.097 1.676 0 0.037 0.001 0.073 0.003 0.11l-0-0.005zM17.125 28.802l-0.308-5.914 3.486 2.41zM29.661 29.518l-12.408-8.593 17.401-16.833zM32.745 3.346l-17.212 16.651-13.59-4.107z"></path>
</symbol>
<symbol id="icon-cek" viewBox="0 0 62 32">
<title>cek</title>
<path d="M52.672 7.688l2.040 2.042-12.376 12.376-2.753 0.716 0.716-2.753 12.376-12.376zM52.675 5.404l-13.832 13.832-0.11 0.426-1.409 5.42 5.846-1.517 13.832-13.832-4.33-4.332z"></path>
<path d="M57.725 2.29l2.040 2.040-1.472 1.472-2.040-2.035 1.472-1.472zM57.725 0.005l-3.763 3.762 4.332 4.33 3.762-3.762-4.33-4.33z"></path>
<path fill="none" stroke="#000" stroke-width="1.7596" stroke-miterlimit="10" stroke-linecap="butt" stroke-linejoin="miter" d="M59.767 16.643v14.476h-58.888v-27.575h39.985"></path>
<path d="M9.078 15.676h20.074v1.742h-20.074v-1.742z"></path>
<path d="M24.841 21.020h4.298v1.742h-4.298v-1.742z"></path>
<path d="M16.965 21.020h4.275v1.742h-4.275v-1.742z"></path>
<path d="M9.078 21.020h4.275v1.742h-4.275v-1.742z"></path>
</symbol>
<symbol id="icon-kartice" viewBox="0 0 43 32">
<title>kartice</title>
<path d="M39.611 32h-36.038c-1.971-0.001-3.569-1.598-3.572-3.568v-24.859c0.002-1.972 1.6-3.57 3.572-3.572h36.038c1.972 0.002 3.57 1.6 3.572 3.572v24.859c-0.003 1.971-1.601 3.567-3.572 3.568zM3.574 1.247c-1.281 0.003-2.318 1.041-2.322 2.321v24.859c0 1.282 1.040 2.322 2.322 2.322h36.038c1.282 0 2.322-1.040 2.322-2.322v-24.855c-0.003-1.281-1.041-2.318-2.321-2.322h-36.038z"></path>
<path d="M16.466 17.565h-9.429c-1.152-0.001-2.086-0.935-2.088-2.087v-6.631c0.002-1.152 0.935-2.085 2.087-2.087h9.43c1.15 0.003 2.082 0.936 2.083 2.087v6.631c0 0 0 0 0 0 0 1.151-0.932 2.085-2.082 2.088zM7.037 7.78c-0.589 0-1.066 0.477-1.067 1.066v6.631c0.001 0.589 0.478 1.066 1.067 1.067h9.429c0.587-0.002 1.062-0.479 1.062-1.066 0-0 0-0.001 0-0.001v-6.631c0-0 0-0.001 0-0.001 0-0.587-0.475-1.063-1.062-1.065h-9.43z"></path>
<path d="M6.859 11.47h2.795v1.395h-2.795v-1.395z"></path>
<path d="M9.768 12.978h-3.021v-1.621h3.021v1.622zM6.972 12.751h2.568v-1.168h-2.568v1.168z"></path>
<path d="M6.859 15.482v-1.217h2.793v1.217c0.002 0.064 0.008 0.126 0.017 0.186l-2.635-0.008c-0.001 0-0.001 0-0.002 0-0.097 0-0.176-0.079-0.176-0.176 0-0.001 0-0.001 0-0.002v0z"></path>
<path d="M9.799 15.773h-2.762c-0.001 0-0.002 0-0.003 0-0.159 0-0.288-0.129-0.288-0.288 0-0.001 0-0.002 0-0.003v-1.331h3.021v1.331c0.001 0.045 0.005 0.089 0.012 0.132zM6.972 14.378v1.104c-0 0.001-0 0.001-0 0.002 0 0.034 0.028 0.062 0.062 0.062 0.001 0 0.001 0 0.002-0h2.506c0-0.020 0-0.041 0-0.064v-1.104h-2.568z"></path>
<path d="M16.644 12.865h-2.795v-1.218c0-0.001 0-0.001 0-0.002 0-0.097 0.079-0.176 0.176-0.176 0.001 0 0.001 0 0.002 0h2.44c0.067-0.004 0.128-0.012 0.188-0.023l-0.010 1.415z"></path>
<path d="M16.757 12.978h-3.021v-1.331c0-0.001-0-0.002-0-0.003 0-0.159 0.129-0.288 0.288-0.288 0.001 0 0.002 0 0.003 0h2.44c0.034-0.001 0.067-0.005 0.099-0.011l0.066-0.009 0.126-0.014v1.657zM13.962 12.751h2.568v-1.172c-0.009 0.001-0.021 0.001-0.032 0.001s-0.022-0-0.033-0.001l-2.438 0c-0.001-0-0.001-0-0.002-0-0.034 0-0.062 0.028-0.062 0.062 0 0.001 0 0.001 0 0.002v1.104z"></path>
<path d="M16.466 15.66h-2.639c0.010-0.051 0.017-0.112 0.021-0.174l0-1.221h2.795v1.217c0 0.098-0.080 0.178-0.178 0.178v0z"></path>
<path d="M16.466 15.773h-2.767l0.015-0.127c0-0.020 0.006-0.040 0.009-0.061 0.006-0.030 0.010-0.064 0.011-0.1l0-1.333h3.021v1.331c-0.001 0.159-0.13 0.288-0.29 0.289zM13.959 15.546h2.507c0.035-0.001 0.063-0.029 0.064-0.064v-1.104h-2.568v1.104c0 0.001 0 0.002 0 0.003 0 0.021-0.001 0.042-0.003 0.063z"></path>
<path d="M16.466 8.67c0.098 0.002 0.177 0.082 0.178 0.181v1.042c-0.001 0.098-0.080 0.177-0.178 0.178h-2.44c-0.871 0.001-1.576 0.706-1.577 1.577v3.836c0 0.001 0 0.001 0 0.002 0 0.097-0.079 0.176-0.176 0.176-0.001 0-0.001 0-0.002 0h-1.042c-0.001 0-0.001 0-0.002 0-0.098 0-0.178-0.079-0.179-0.178v-6.631c0.001-0.099 0.081-0.18 0.181-0.181h5.236z"></path>
<path d="M12.272 15.773h-1.042c-0.001 0-0.001 0-0.002 0-0.161 0-0.292-0.13-0.293-0.291v-6.631c0-0.163 0.132-0.295 0.295-0.295h5.236c0.161 0.003 0.29 0.134 0.291 0.295v1.042c0 0.161-0.13 0.291-0.291 0.291h-2.44c-0.808 0.001-1.463 0.656-1.464 1.464v3.836c0 0.001 0 0.001 0 0.002 0 0.159-0.129 0.288-0.288 0.288-0.001 0-0.002 0-0.003-0zM11.23 8.782c-0.037 0.001-0.067 0.031-0.068 0.068v6.631c0.001 0.035 0.030 0.064 0.066 0.064 0.001 0 0.001 0 0.002-0h1.042c0 0 0.001 0 0.001 0 0.035 0 0.063-0.028 0.063-0.063 0-0 0-0.001 0-0.001v-3.836c0.001-0.934 0.757-1.69 1.691-1.691h2.44c0.035-0.001 0.063-0.029 0.064-0.063v-1.042c-0-0.036-0.028-0.065-0.063-0.068h-5.236z"></path>
<path d="M7.037 8.67h2.634c-0.008 0.052-0.014 0.115-0.016 0.178l-0 1.221h-2.795v-1.218c0-0.001 0-0.001 0-0.002 0-0.098 0.079-0.178 0.178-0.179h0z"></path>
<path d="M9.768 10.183h-3.021v-1.332c0-0.001 0-0.001 0-0.002 0-0.161 0.13-0.292 0.291-0.293h2.761l-0.019 0.173c-0.005 0.036-0.009 0.078-0.010 0.121l-0 1.334zM6.972 9.956h2.568v-1.11c0-0.023 0-0.045 0-0.068h-2.508c-0.035 0.001-0.064 0.030-0.064 0.066 0 0.001 0 0.001 0 0.002v1.11z"></path>
<path d="M26.134 6.969h11.758v1.021h-11.758v-1.021z"></path>
<path d="M35.368 10.1h2.518v1.021h-2.518v-1.021z"></path>
<path d="M30.754 10.1h2.503v1.021h-2.503v-1.021z"></path>
<path d="M26.134 10.1h2.503v1.021h-2.503v-1.021z"></path>
<path d="M5.514 23.539h4.89v1.547h-4.89v-1.547z"></path>
<path d="M14.599 23.539h4.895v1.547h-4.895v-1.547z"></path>
<path d="M23.684 23.539h4.894v1.547h-4.894v-1.547z"></path>
<path d="M32.776 23.539h4.89v1.547h-4.89v-1.547z"></path>
</symbol>
<symbol id="icon-kes" viewBox="0 0 34 32">
<title>kes</title>
<path d="M0.472 26.737l-0.472-0.783 7.099-4.278c0.034-0.018 3.437-1.781 6.423-0.878l6.776 2.054-0.084 0.409c-0.017 0.078-0.038 0.146-0.065 0.211-0.226 0.607-0.712 0.976-1.44 1.090-1.874 0.298-4.805 0.174-5.662 0.128h-0.044c-0.010-0.001-0.021-0.001-0.033-0.001-0.132 0-0.252 0.049-0.343 0.13-0.098 0.087-0.161 0.212-0.168 0.352l-0.912-0.054c0.048-0.751 0.668-1.341 1.426-1.341 0.031 0 0.062 0.001 0.093 0.003l-0.004-0h0.037c0.832 0.044 3.682 0.169 5.469-0.119 0.205-0.020 0.388-0.098 0.537-0.217l-5.846-1.773c-2.517-0.761-5.53 0.711-5.721 0.807z"></path>
<path d="M2.872 32l-0.586-0.701 2.989-2.494c0.249-0.204 0.572-0.328 0.923-0.328 0.076 0 0.151 0.006 0.225 0.017l10.487 1.477c0.183 0.030 0.394 0.047 0.61 0.047 0.879 0 1.691-0.285 2.349-0.767l12.451-9.119c-0.227 0.035-0.431 0.1-0.621 0.191-1.388 0.615-3.892 1.788-7.432 3.485l-0.351 0.169-0.182-0.423-0.189-0.416 0.326-0.156c3.549-1.7 6.060-2.878 7.468-3.501 0.836-0.374 1.585-0.368 2.223 0.021l0.032 0.019 0.663 0.322-13.859 10.155c-0.797 0.585-1.796 0.936-2.878 0.936-0.263 0-0.52-0.021-0.772-0.060l-10.464-1.475c-0.026-0.004-0.055-0.007-0.086-0.007-0.129 0-0.248 0.045-0.342 0.12z"></path>
<path d="M17.636 16.998c-2.314-0.004-4.188-1.88-4.188-4.194 0-1.156 0.468-2.203 1.225-2.962l-0 0c0.758-0.756 1.804-1.224 2.959-1.224 2.314 0 4.19 1.876 4.19 4.19 0 2.313-1.874 4.188-4.186 4.19zM17.636 9.524c-0.001 0-0.003 0-0.005 0-0.904 0-1.722 0.368-2.312 0.963l-0 0c-0.588 0.591-0.951 1.406-0.951 2.305 0 1.805 1.464 3.269 3.269 3.269s3.269-1.464 3.269-3.269c0-1.805-1.464-3.269-3.269-3.269-0 0-0 0-0 0z"></path>
<path d="M24.312 5.894c-1.627-0-2.947-1.319-2.947-2.947 0-0.813 0.329-1.548 0.861-2.082l-0 0c0.534-0.535 1.271-0.865 2.086-0.865 1.628 0 2.947 1.319 2.947 2.947s-1.319 2.947-2.947 2.947c-0 0-0 0-0 0zM22.875 1.512c-0.367 0.368-0.594 0.876-0.594 1.437 0 1.123 0.911 2.034 2.034 2.034 0.562 0 1.071-0.228 1.44-0.597s0.594-0.876 0.594-1.437c0-1.124-0.911-2.035-2.035-2.035-0.563 0-1.072 0.229-1.441 0.598z"></path>
</symbol>
<symbol id="icon-minus2" viewBox="0 0 44 32">
<title>minus2</title>
<path fill="none" stroke="#000" stroke-width="1.476" stroke-miterlimit="10" stroke-linecap="butt" stroke-linejoin="miter" d="M41.456 3.536v5.614"></path>
<path fill="none" stroke="#000" stroke-width="1.476" stroke-miterlimit="10" stroke-linecap="butt" stroke-linejoin="miter" d="M44.264 6.344h-5.614"></path>
<path fill="none" stroke="#000" stroke-width="1.476" stroke-miterlimit="10" stroke-linecap="butt" stroke-linejoin="miter" d="M44.264 22.744h-5.614"></path>
<path fill="none" stroke="#000" stroke-width="1.1457" stroke-miterlimit="10" stroke-linecap="butt" stroke-linejoin="miter" d="M44.263 14.544h-19.81"></path>
<path fill="none" stroke="#000" stroke-width="1.1457" stroke-miterlimit="10" stroke-linecap="butt" stroke-linejoin="miter" d="M5.974 14.544lNaNNaNc"></path>
<path fill="none" stroke="#000" stroke-width="1.1457" stroke-miterlimit="10" stroke-linecap="butt" stroke-linejoin="miter" d="M6.505 0.485l7.868 4.778c0.316 0.22 3.396 2.523 3.976 5.56v0l1.39 7.294c-0.043 0.012-0.094 0.021-0.146 0.026-0.549 0.071-0.986-0.139-1.368-0.654-1.413-1.898-3.002-5.437-3.018-5.469-0.173-0.382-0.551-0.642-0.99-0.642-0.16 0-0.312 0.035-0.449 0.097M18.349 10.822"></path>
<path fill="none" stroke="#000" stroke-width="1.1457" stroke-miterlimit="10" stroke-linecap="butt" stroke-linejoin="miter" d="M21.415 22.239c0.054 0.043 5.271 3.921 7.636 5.799 0.678 0.533 0.985 1.119 0.936 1.792 0 0.020 0 0.033 0 0.053l-16.432-8.057c-1.164-0.584-2.048-1.58-2.472-2.793l-3.983-11.168c-0.105-0.298-0.324-0.534-0.604-0.657l-4.013-1.664M31.494 31.998"></path>
</symbol>
<symbol id="icon-ref" viewBox="0 0 33 32">
<title>ref</title>
<path fill="#231f20" style="fill: var(--color1, #231f20)" d="M0.459 26.88l-0.459-0.761 6.904-4.161c0.033-0.017 3.343-1.732 6.247-0.854l6.59 1.998-0.082 0.398c-0.017 0.076-0.037 0.142-0.063 0.205-0.22 0.59-0.692 0.949-1.401 1.060-1.822 0.29-4.674 0.169-5.507 0.125h-0.043c-0.010-0.001-0.021-0.001-0.032-0.001-0.128 0-0.245 0.048-0.333 0.126-0.095 0.085-0.157 0.206-0.164 0.342l-0.887-0.052c0.046-0.73 0.65-1.305 1.387-1.305 0.030 0 0.061 0.001 0.091 0.003l-0.004-0h0.036c0.809 0.043 3.581 0.164 5.319-0.116 0.199-0.020 0.377-0.096 0.522-0.211l-5.686-1.725c-2.448-0.74-5.378 0.691-5.565 0.785z"></path>
<path fill="#231f20" style="fill: var(--color1, #231f20)" d="M2.793 32l-0.57-0.682 2.907-2.426c0.243-0.199 0.556-0.319 0.897-0.319 0.074 0 0.147 0.006 0.218 0.017l10.2 1.437c0.178 0.029 0.384 0.046 0.593 0.046 0.855 0 1.645-0.277 2.285-0.746l12.11-8.869c-0.221 0.034-0.42 0.097-0.604 0.186-1.35 0.598-3.785 1.739-7.228 3.389l-0.341 0.164-0.177-0.411-0.184-0.404 0.317-0.152c3.452-1.654 5.894-2.8 7.264-3.405 0.813-0.364 1.541-0.358 2.163 0.021l0.031 0.019 0.644 0.31-13.48 9.877c-0.775 0.569-1.747 0.91-2.8 0.91-0.255 0-0.506-0.020-0.75-0.059l-10.177-1.432c-0.025-0.004-0.054-0.007-0.083-0.007-0.126 0-0.242 0.044-0.333 0.117z"></path>
<path fill="none" stroke="#000" stroke-width="0.8932" stroke-miterlimit="10" stroke-linecap="butt" stroke-linejoin="miter" d="M15.805 1.598c-3.594 1.174-6.146 4.497-6.146 8.415"></path>
<path fill="#000" style="fill: var(--color2, #000)" d="M12.982 0l-0.237 0.579 2.855 1.162-1.368 2.763 0.561 0.277 1.665-3.366-3.478-1.416z"></path>
<path fill="none" stroke="#000" stroke-width="0.8932" stroke-miterlimit="10" stroke-linecap="butt" stroke-linejoin="miter" d="M21.175 18.428c3.593-1.175 6.143-4.497 6.143-8.414 0-0 0-0 0-0.001"></path>
<path fill="#000" style="fill: var(--color2, #000)" d="M23.999 20.025l0.237-0.579-2.855-1.162 1.368-2.763-0.561-0.277-1.665 3.366 3.478 1.416z"></path>
<path fill="none" stroke="#000" stroke-width="0.8932" stroke-miterlimit="10" stroke-linecap="butt" stroke-linejoin="miter" d="M17.615 12.556c0 1.634-1.325 2.959-2.959 2.959s-2.959-1.325-2.959-2.959c0-1.634 1.325-2.959 2.959-2.959s2.959 1.325 2.959 2.959z"></path>
<path fill="none" stroke="#000" stroke-width="0.8932" stroke-miterlimit="10" stroke-linecap="butt" stroke-linejoin="miter" d="M23.228 6.121c0 1.012-0.82 1.832-1.832 1.832s-1.832-0.82-1.832-1.832c0-1.012 0.82-1.832 1.832-1.832s1.832 0.82 1.832 1.832z"></path>
</symbol>
<symbol id="icon-stam" viewBox="0 0 34 32">
<title>stam</title>
<path d="M0.469 26.759l-0.469-0.779 7.067-4.259c0.034-0.018 3.422-1.773 6.394-0.874l6.746 2.045-0.084 0.407c-0.017 0.078-0.038 0.145-0.064 0.21-0.225 0.604-0.709 0.972-1.434 1.085-1.865 0.297-4.784 0.173-5.637 0.128h-0.044c-0.010-0.001-0.021-0.001-0.033-0.001-0.131 0-0.25 0.049-0.341 0.129-0.097 0.087-0.161 0.211-0.168 0.35l-0.908-0.053c0.047-0.747 0.665-1.335 1.42-1.335 0.031 0 0.062 0.001 0.093 0.003l-0.004-0h0.037c0.828 0.044 3.666 0.168 5.444-0.119 0.204-0.020 0.386-0.098 0.535-0.216l-5.82-1.765c-2.505-0.757-5.505 0.708-5.696 0.803z"></path>
<path d="M2.859 32l-0.583-0.698 2.976-2.483c0.248-0.203 0.569-0.326 0.919-0.326 0.076 0 0.151 0.006 0.224 0.017l10.44 1.47c0.182 0.030 0.393 0.047 0.607 0.047 0.875 0 1.683-0.284 2.339-0.764l12.395-9.078c-0.226 0.035-0.43 0.1-0.618 0.19-1.382 0.612-3.874 1.78-7.399 3.469l-0.349 0.168-0.181-0.421-0.188-0.414 0.325-0.156c3.534-1.693 6.033-2.866 7.435-3.486 0.832-0.373 1.577-0.366 2.213 0.021l0.032 0.019 0.66 0.321-13.797 10.11c-0.793 0.582-1.788 0.932-2.865 0.932-0.261 0-0.518-0.021-0.768-0.060l-10.417-1.467c-0.026-0.004-0.055-0.007-0.085-0.007-0.129 0-0.247 0.045-0.341 0.119z"></path>
<path fill="none" stroke="#000" stroke-width="0.9142" stroke-miterlimit="10" stroke-linecap="butt" stroke-linejoin="miter" d="M23.888 6.083l-6.924-5.5-6.925 5.5v8.174h5.763v-3.406h2.324v3.406h5.762v-5.491"></path>
</symbol>
<symbol id="icon-check" viewBox="0 0 42 32">
<title>check</title>
<path d="M0.474 17.598c-0.279-0.294-0.456-0.687-0.474-1.121 0.018-0.437 0.195-0.827 0.474-1.118l2.243-2.243c0.284-0.293 0.682-0.475 1.122-0.475s0.837 0.182 1.121 0.475l0.157 0.167 8.807 9.437c0.14 0.15 0.339 0.243 0.56 0.243s0.419-0.093 0.559-0.243l21.44-22.241h0.167c0.284-0.293 0.682-0.475 1.122-0.475s0.837 0.182 1.121 0.475l2.239 2.244c0.293 0.284 0.475 0.682 0.475 1.122s-0.182 0.837-0.475 1.121l-25.593 26.546c-0.284 0.293-0.682 0.475-1.122 0.475s-0.837-0.182-1.121-0.475l-12.492-13.445z"></path>
</symbol>
<symbol id="icon-close" viewBox="0 0 32 32">
<title>close</title>
<path d="M32.298 30.288l-14.43-14.425 14.154-14.15-1.717-1.712-14.159 14.159-14.159-14.159-1.712 1.712 14.15 14.15-14.425 14.425 1.712 1.712 14.434-14.439 14.434 14.439 1.717-1.712z"></path>
</symbol>
<symbol id="icon-download" viewBox="0 0 33 32">
<title>download</title>
<path d="M24.929 16.744c0.163-0.159 0.263-0.381 0.263-0.626s-0.101-0.467-0.263-0.626c-0.157-0.163-0.377-0.264-0.62-0.264s-0.463 0.101-0.62 0.263l-6.35 6.338v-20.944c0-0.002 0-0.004 0-0.006 0-0.484-0.39-0.877-0.873-0.882-0 0-0 0-0 0-0.491 0-0.89 0.397-0.892 0.888v20.944l-6.338-6.338c-0.16-0.16-0.382-0.259-0.626-0.259-0.489 0-0.886 0.396-0.886 0.886 0 0.245 0.099 0.466 0.259 0.626l7.854 7.854c0.163 0.155 0.383 0.25 0.626 0.25s0.463-0.095 0.627-0.25zM31.151 22.506c0-0.001 0-0.002 0-0.003 0-0.481 0.39-0.87 0.87-0.87 0.003 0 0.006 0 0.010 0s0.005-0 0.009-0c0.484 0 0.876 0.39 0.879 0.873v8.621c-0.003 0.489-0.4 0.884-0.888 0.885h-31.151c-0.486-0.002-0.879-0.396-0.879-0.882 0-0.001 0-0.002 0-0.003v-8.633c0-0.487 0.395-0.882 0.882-0.882s0.882 0.395 0.882 0.882v7.742h29.392v-7.742z"></path>
</symbol>
<symbol id="icon-Ikonice" viewBox="0 0 32 32">
<title>Ikonice</title>
<path d="M12.738 32h-6.026v-0.877c-0.042-0.87-0.322-3.050-2.011-4.785-0.903-0.932-1.705-2.149-2.386-3.62l-0.006-0.012c-0.372-0.706-0.688-1.526-0.905-2.385-0.028-0.108-0.036-0.143-0.040-0.179-0.19-0.763-0.299-1.636-0.299-2.535 0-0.001 0-0.002 0-0.003-0-0.015-0-0.033-0-0.051 0-0.623 0.053-1.234 0.156-1.828l0.942 0.228c-0.089 0.495-0.14 1.064-0.14 1.646 0 0.002 0 0.004 0 0.006s0 0.003 0 0.005c0 0.832 0.102 1.641 0.295 2.413l-0-0.005c0.213 0.845 0.497 1.583 0.857 2.276-0.012-0.034 0.002-0.007 0.013 0.022 0.639 1.377 1.378 2.5 2.201 3.35 1.892 1.943 2.227 4.365 2.281 5.371h4.1v-0.76c0.001-0.395 0.175-0.75 0.45-0.992 0.231-0.207 0.537-0.333 0.872-0.333 0.064 0 0.128 0.005 0.19 0.014 0.615 0.084 1.334 0.134 2.064 0.134 0.5 0 1.034-0.029 1.634-0.088 0.043-0.005 0.092-0.008 0.142-0.008 0.732 0 1.325 0.592 1.326 1.324v0.702h4.096v-0.79c0.015-0.598 0.216-2.683 2.152-4.437l0.138-0.125h0.013l0.051-0.043 0.032-0.032c1.597-1.422 2.746-3.169 3.32-5.053 0.171-0.548 0.674-0.938 1.268-0.938 0 0 0.001 0 0.001 0h1.067c0.001 0 0.002 0 0.003 0 0.116 0 0.21-0.094 0.21-0.21 0-0.001 0-0.002-0-0.003v-3.791c0-0.001 0-0.002 0-0.003 0-0.116-0.094-0.21-0.21-0.21-0.001 0-0.002 0-0.003 0h-1.122c-0 0-0 0-0 0-0.585 0-1.081-0.38-1.256-0.906-0.663-2.020-1.952-3.84-3.729-5.274-0.285-0.227-0.472-0.568-0.493-0.952-0.347-1.276-0.198-2.617 0.429-3.927-1.599 0.391-2.485 1.251-2.96 1.952-0.241 0.354-0.642 0.583-1.097 0.583-0.143 0-0.282-0.023-0.411-0.065-0.78-0.257-1.712-0.465-2.672-0.582l0.039-0.966c1.099 0.133 2.092 0.354 3.045 0.662-0.080-0.020-0.041-0.014-0.001-0.014 0.124 0 0.234-0.062 0.3-0.158 0.661-0.981 1.968-2.21 4.452-2.522h0.054c0.006-0 0.012-0 0.019-0 0.309 0 0.56 0.251 0.56 0.56 0 0.098-0.025 0.19-0.069 0.27l-0.017 0.029c-0.834 1.329-1.085 2.703-0.724 3.971l0.018 0.065v0.080c0.003 0.106 0.053 0.2 0.13 0.263 1.931 1.555 3.324 3.531 4.043 5.719 0.049 0.146 0.183 0.249 0.342 0.251h1.13c0.65 0.001 1.177 0.527 1.178 1.178v3.791c-0.001 0.65-0.528 1.177-1.177 1.178h-1.067c-0.001 0-0.001 0-0.002 0-0.162 0-0.299 0.108-0.344 0.255-0.625 2.042-1.867 3.94-3.591 5.475v0l-0.031 0.029c-0.033 0.029-0.067 0.057-0.1 0.088s-0.055 0.046-0.082 0.070c-0.017 0.016-0.036 0.031-0.055 0.045-1.615 1.485-1.788 3.206-1.802 3.711v1.74h-6.029v-1.667c0-0.001 0-0.003 0-0.004 0-0.103-0.046-0.196-0.118-0.259-0.063-0.060-0.148-0.096-0.241-0.096-0.012 0-0.024 0.001-0.036 0.002l-0.007-0c-0.634 0.063-1.2 0.094-1.732 0.094-0.779-0-1.545-0.053-2.296-0.154 0.074 0.008 0.057 0.006 0.040 0.006-0.091 0-0.174 0.035-0.236 0.091-0.075 0.066-0.123 0.162-0.125 0.27v1.725zM3.184 22.3l0.005 0.012z"></path>
<path d="M7.047 14.092c-3.892 0-7.046-3.155-7.046-7.046s3.155-7.046 7.046-7.046c3.891 0 7.046 3.155 7.046 7.046-0.005 3.89-3.156 7.042-7.046 7.046zM7.047 0.965c-3.358 0-6.081 2.723-6.081 6.081s2.723 6.081 6.081 6.081c3.358 0 6.081-2.723 6.081-6.081-0.004-3.357-2.724-6.077-6.081-6.081z"></path>
</symbol>
<symbol id="icon-kredit" viewBox="0 0 34 32">
<title>kredit</title>
<path d="M0.472 26.733l-0.472-0.783 7.099-4.278c0.034-0.018 3.437-1.781 6.423-0.878l6.776 2.054-0.084 0.409c-0.017 0.078-0.038 0.146-0.065 0.211-0.226 0.607-0.712 0.976-1.44 1.090-1.874 0.298-4.805 0.174-5.662 0.128h-0.044c-0.010-0.001-0.021-0.001-0.033-0.001-0.132 0-0.252 0.049-0.343 0.13-0.098 0.087-0.161 0.212-0.168 0.352l-0.912-0.054c0.048-0.75 0.668-1.341 1.426-1.341 0.030 0 0.059 0.001 0.089 0.003l-0.004-0h0.037c0.832 0.044 3.682 0.169 5.469-0.119 0.205-0.020 0.388-0.098 0.537-0.217l-5.846-1.773c-2.517-0.761-5.53 0.711-5.721 0.807z"></path>
<path d="M2.872 32.001l-0.586-0.701 2.989-2.494c0.249-0.204 0.572-0.328 0.923-0.328 0.076 0 0.151 0.006 0.225 0.017l10.487 1.477c0.183 0.030 0.394 0.047 0.61 0.047 0.879 0 1.691-0.285 2.349-0.767l12.451-9.119c-0.227 0.035-0.431 0.1-0.621 0.191-1.388 0.615-3.892 1.788-7.432 3.485l-0.351 0.169-0.182-0.423-0.189-0.416 0.326-0.156c3.549-1.7 6.060-2.878 7.468-3.501 0.836-0.374 1.585-0.368 2.223 0.021l0.032 0.019 0.663 0.322-13.86 10.156c-0.797 0.585-1.797 0.936-2.878 0.936-0.263 0-0.52-0.021-0.772-0.060l-10.463-1.477c-0.026-0.004-0.055-0.007-0.086-0.007-0.129 0-0.248 0.045-0.342 0.12z"></path>
<path d="M17.636 16.998c-2.314-0.004-4.188-1.88-4.188-4.194 0-1.156 0.468-2.203 1.225-2.962l-0 0c0.758-0.756 1.804-1.224 2.959-1.224 2.314 0 4.19 1.876 4.19 4.19 0 2.313-1.874 4.188-4.186 4.19zM17.636 9.524c-0.002 0-0.004 0-0.006 0-0.904 0-1.721 0.368-2.311 0.962l-0 0c-0.588 0.591-0.952 1.406-0.952 2.306 0 1.805 1.464 3.269 3.269 3.269s3.269-1.464 3.269-3.269c0-1.805-1.463-3.268-3.268-3.269z"></path>
<path d="M24.312 5.894c-1.627-0-2.947-1.319-2.947-2.947 0-0.813 0.329-1.548 0.861-2.082l-0 0c0.534-0.535 1.271-0.865 2.086-0.865 1.628 0 2.947 1.319 2.947 2.947s-1.319 2.947-2.947 2.947c-0 0-0 0-0 0zM22.875 1.512c-0.367 0.368-0.594 0.876-0.594 1.437 0 1.123 0.911 2.034 2.034 2.034 0.562 0 1.071-0.228 1.44-0.597s0.594-0.876 0.594-1.437c0-1.124-0.911-2.035-2.035-2.035-0.563 0-1.072 0.229-1.441 0.598z"></path>
</symbol>
<symbol id="icon-kurs" viewBox="0 0 68 32">
<title>kurs</title>
<path d="M15.978 32c8.817-0.004 15.963-7.153 15.963-15.971 0-8.82-7.15-15.971-15.971-15.971s-15.971 7.15-15.971 15.971c0 0.013 0 0.027 0 0.040 0.017 8.794 7.152 15.918 15.951 15.918 0.010 0 0.020 0 0.029-0h-0.002zM7.117 13.419h1.825c0.137-0.534 0.285-0.979 0.46-1.411 0.893-2.169 2.432-3.766 4.761-4.529 0.909-0.305 1.957-0.481 3.045-0.481 0.986 0 1.937 0.144 2.835 0.413 0.513 0.145 1.005 0.326 1.478 0.541 0.218 0.071 0.419 0.337 0.419 0.65 0 0.123-0.031 0.239-0.086 0.34-0.198 0.503-0.401 0.989-0.631 1.477-0.203 0.433-0.446 0.562-0.922 0.461-0.605-0.129-1.192-0.316-1.798-0.446-0.46-0.114-0.988-0.179-1.531-0.179-0.696 0-1.367 0.107-1.998 0.305-1.391 0.448-2.153 1.506-2.614 2.848l3.912-0.015c0.001 0 0.002 0 0.003 0 0.305 0 0.552 0.243 0.559 0.546v1.236c0 0.001 0 0.002 0 0.003 0 0.305-0.243 0.552-0.546 0.559l-4.287 0.015v1.013l4.271-0.015c0.001 0 0.002 0 0.003 0 0.305 0 0.552 0.243 0.559 0.546v1.236c0 0.001 0 0.002 0 0.003 0 0.305-0.243 0.552-0.546 0.559l-3.74 0.015v0.043c0.446 1.013 1.106 1.841 2.185 2.258 0.665 0.251 1.433 0.396 2.236 0.396 0.559 0 1.102-0.070 1.62-0.203 0.56-0.119 1.163-0.307 1.768-0.451 0.071-0.027 0.152-0.043 0.238-0.043 0.308 0 0.567 0.204 0.652 0.484 0.216 0.478 0.432 0.969 0.634 1.458 0.058 0.105 0.092 0.23 0.092 0.363 0 0.302-0.177 0.563-0.432 0.686-0.097 0.056-0.207 0.109-0.32 0.153-1.202 0.506-2.581 0.797-4.028 0.797-0.55 0-1.090-0.042-1.617-0.123-3.068-0.405-5.582-2.629-6.414-5.561l-0.084-0.242-1.927 0.015c-0.001 0-0.002 0-0.003 0-0.305 0-0.552-0.243-0.559-0.546v-1.236c0-0.001 0-0.002 0-0.003 0-0.305 0.243-0.552 0.546-0.559h1.52v-1.013h-1.519c-0.001 0-0.002 0-0.003 0-0.305 0-0.552-0.243-0.559-0.546v-1.236c-0-0.007-0-0.015-0-0.023 0-0.306 0.243-0.556 0.546-0.567l0.001-0z"></path>
<path d="M52.115 0c-8.753 0-15.849 7.096-15.849 15.849s7.096 15.849 15.849 15.849c8.753 0 15.849-7.096 15.849-15.849 0-0.002 0-0.005 0-0.008 0-8.749-7.093-15.842-15.842-15.842-0.003 0-0.005 0-0.008 0h0zM56.673 22.106c-0.673 0.809-1.577 1.405-2.61 1.688-0.497 0.138-0.697 0.368-0.682 0.857s0 0.934 0 1.41c0.004 0.024 0.006 0.052 0.006 0.081 0 0.315-0.255 0.57-0.57 0.57-0.019 0-0.038-0.001-0.056-0.003q-0.757 0.020-1.517 0c-0.446-0.015-0.648-0.253-0.661-0.691 0-0.344 0-0.691-0.015-1.013-0.015-0.76-0.028-0.79-0.76-0.906-1-0.132-1.907-0.405-2.745-0.801-0.605-0.308-0.678-0.465-0.491-1.171 0.144-0.506 0.286-1.036 0.446-1.552 0.187-0.605 0.344-0.676 0.906-0.387 0.864 0.45 1.871 0.765 2.937 0.887 0.199 0.028 0.382 0.042 0.569 0.042 0.515 0 1.006-0.107 1.45-0.301 1.141-0.497 1.329-1.847 0.336-2.667-0.319-0.253-0.684-0.47-1.075-0.636-1.044-0.457-2.117-0.802-3.069-1.379-1.567-0.934-2.56-2.228-2.446-4.127 0.129-2.157 1.352-3.496 3.322-4.216 0.82-0.301 0.82-0.289 0.82-1.137v-0.863c0.015-0.646 0.129-0.76 0.76-0.777h0.59c1.367 0 1.367 0 1.367 1.367 0 0.965 0 0.965 0.965 1.122 0.792 0.129 1.502 0.349 2.166 0.654 0.208 0.056 0.394 0.292 0.394 0.572 0 0.082-0.016 0.16-0.045 0.231-0.171 0.586-0.33 1.176-0.505 1.75s-0.36 0.633-0.876 0.375c-0.848-0.426-1.848-0.676-2.906-0.676-0.157 0-0.313 0.005-0.467 0.016-0.302 0.005-0.608 0.073-0.886 0.192-0.997 0.44-1.164 1.561-0.301 2.252 0.419 0.323 0.898 0.599 1.413 0.806 0.932 0.389 1.838 0.749 2.701 1.209 2.732 1.494 3.466 4.904 1.555 7.233v0z"></path>
</symbol>
<symbol id="icon-link" viewBox="0 0 34 32">
<title>link</title>
<path d="M18.165 13.717c-0.175 0.174-0.283 0.414-0.283 0.68s0.108 0.506 0.282 0.68c0.723 0.724 1.17 1.723 1.17 2.826s-0.447 2.103-1.17 2.826l-8.171 8.185c-0.724 0.723-1.723 1.17-2.826 1.17s-2.103-0.447-2.826-1.17l-1.23-1.23c-0.723-0.724-1.17-1.723-1.17-2.826s0.447-2.103 1.17-2.826l8.185-8.185c0.159-0.171 0.256-0.401 0.256-0.654 0-0.531-0.431-0.962-0.962-0.962-0.253 0-0.483 0.097-0.654 0.257l-8.199 8.196c-1.072 1.070-1.736 2.55-1.736 4.185s0.663 3.114 1.736 4.185l1.23 1.23c1.072 1.068 2.551 1.729 4.185 1.729s3.113-0.66 4.185-1.729l8.185-8.185c1.068-1.072 1.729-2.551 1.729-4.185s-0.66-3.113-1.729-4.185c-0.174-0.174-0.414-0.282-0.68-0.282s-0.506 0.108-0.68 0.283l-0 0z"></path>
<path d="M32.637 2.962l-1.23-1.23c-1.072-1.068-2.551-1.729-4.185-1.729s-3.113 0.66-4.185 1.729l-8.185 8.185c-1.068 1.072-1.729 2.551-1.729 4.185s0.661 3.113 1.729 4.185c0.171 0.159 0.401 0.256 0.654 0.256 0.531 0 0.962-0.431 0.962-0.962 0-0.253-0.097-0.483-0.257-0.654-0.722-0.723-1.169-1.722-1.169-2.826s0.447-2.103 1.17-2.826l8.185-8.185c0.724-0.723 1.723-1.17 2.826-1.17s2.103 0.447 2.826 1.17l1.23 1.23c0.723 0.724 1.17 1.723 1.17 2.826s-0.447 2.103-1.17 2.826l-8.185 8.185c-0.173 0.174-0.28 0.415-0.28 0.68 0 0.53 0.428 0.961 0.957 0.965 0.001 0 0.001 0 0.002 0 0.265 0 0.505-0.11 0.675-0.288l8.185-8.185c1.070-1.071 1.732-2.551 1.732-4.185s-0.662-3.114-1.732-4.185l0 0z"></path>
</symbol>
<symbol id="icon-login" viewBox="0 0 37 32">
<title>login</title>
<path d="M25.816 17.138h-24.672c-0.632 0-1.144-0.512-1.144-1.144s0.512-1.144 1.144-1.144h24.672l-5.993-5.975c-0.208-0.207-0.336-0.493-0.336-0.81 0-0.631 0.512-1.143 1.143-1.143 0.315 0 0.6 0.127 0.807 0.333l7.882 7.885c0.203 0.231 0.326 0.534 0.326 0.866s-0.123 0.635-0.325 0.865l-7.883 7.886c-0.204 0.193-0.48 0.312-0.784 0.312-0.63 0-1.141-0.511-1.141-1.141 0-0.303 0.118-0.579 0.311-0.783zM32 0v0c0 0 0 0 0 0 2.525 0 4.573 2.046 4.577 4.571v22.847c0 2.524-2.046 4.571-4.571 4.571-0.002 0-0.004 0-0.006 0h-22.859c-0.001 0-0.002 0-0.003 0-2.523 0-4.568-2.045-4.568-4.568 0-0.001 0-0.002 0-0.003v-4.571h2.288v4.591c0 0.002 0 0.004 0 0.006 0 1.26 1.022 2.282 2.282 2.282 0 0 0 0 0 0h22.859c1.264 0 2.288-1.024 2.288-2.288v-22.859c0 0 0 0 0 0 0-1.26-1.022-2.282-2.282-2.282-0.002 0-0.004 0-0.006 0h-22.859c-0.001 0-0.002 0-0.003 0-1.259 0-2.279 1.020-2.279 2.279 0 0.001 0 0.002 0 0.003v4.571h-2.288v-4.571c0.002-2.523 2.047-4.569 4.571-4.57h22.859z"></path>
</symbol>
<symbol id="icon-Marker" viewBox="0 0 24 32">
<title>Marker</title>
<path d="M11.99-0.008c-6.619 0.008-11.983 5.371-11.99 11.989 0 2.663 1.019 7.436 5.198 13.272 2.26 3.158 4.373 5.347 5.797 6.408 0.274 0.206 0.62 0.33 0.995 0.33s0.721-0.124 0.999-0.333c1.42-1.056 3.092-2.765 5.792-6.405 4.275-5.765 5.198-10.608 5.198-13.271-0.008-6.619-5.371-11.983-11.989-11.99h-0.001zM11.99 18.115c-3.432 0-6.215-2.782-6.215-6.215s2.782-6.215 6.215-6.215c3.432 0 6.215 2.782 6.215 6.215 0 0.001 0 0.002 0 0.003 0 3.432-2.782 6.215-6.215 6.215v0z"></path>
</symbol>
<symbol id="icon-mouse" viewBox="0 0 21 32">
<title>mouse</title>
<path d="M21.338 21.33v-10.682c-0.005-5.652-4.399-10.275-9.957-10.646l-1.383-0.002c-5.587 0.38-9.978 4.999-9.989 10.647v10.683c0.192 5.742 4.894 10.324 10.665 10.324s10.472-4.582 10.664-10.306zM1.348 21.341v-10.682c0-5.147 4.173-9.32 9.32-9.32s9.32 4.173 9.32 9.32v10.682c0.001 0.059 0.002 0.129 0.002 0.198 0 5.147-4.173 9.32-9.32 9.32s-9.32-4.173-9.32-9.32c0-0.070 0.001-0.139 0.002-0.209z"></path>
<path d="M10.672 5.774c-0.373 0.001-0.675 0.303-0.675 0.675v5.572c0 0.373 0.302 0.675 0.675 0.675s0.675-0.302 0.675-0.675v-5.572c-0.001-0.373-0.303-0.675-0.675-0.675h-0z"></path>
</symbol>
<symbol id="icon-osiguranje" viewBox="0 0 41 32">
<title>osiguranje</title>
<path d="M21.047 29.433h-0.993c0-1.895 2.413-6.498 2.716-7.066 0.118-0.247 1.558-3.174 4.084-4.136l5.957-2.264 0.199 0.407c0.026 0.053 0.050 0.116 0.069 0.181 0.183 0.599 0.037 1.153-0.437 1.655-1.163 1.233-3.3 2.743-3.927 3.176l-0.033 0.023c-0.080 0.054-0.137 0.137-0.156 0.234-0.004 0.023-0.007 0.046-0.007 0.070 0 0.076 0.023 0.146 0.063 0.204l-0.822 0.557c-0.147-0.214-0.235-0.479-0.235-0.764 0-0.466 0.234-0.877 0.591-1.123l0.005-0.003 0.026-0.019c0.607-0.42 2.672-1.878 3.769-3.041 0.065-0.066 0.121-0.14 0.169-0.22l-4.885 1.851c-2.213 0.841-3.529 3.61-3.542 3.636l-0.014 0.027c-0.717 1.365-2.597 5.21-2.597 6.614z"></path>
<path d="M25.564 32l-0.969-0.215 0.75-3.378c0.093-0.388 0.339-0.706 0.669-0.894l8.195-4.663c0.79-0.441 1.379-1.161 1.639-2.024l3.675-12.723-0.019 0.034c-0.95 1.751-3.473 6.253-4.513 8.107l-0.078 0.139-0.868-0.482 0.080-0.143c1.040-1.852 3.56-6.349 4.506-8.092 0.399-0.745 0.952-1.162 1.644-1.239h0.032l0.782-0.162-4.28 14.816c-0.342 1.143-1.099 2.071-2.092 2.628l-8.207 4.67c-0.097 0.053-0.168 0.143-0.195 0.251z"></path>
<path d="M21.034 29.433h-0.993c0-1.404-1.88-5.247-2.605-6.61l-0.014-0.027c-0.013-0.028-1.329-2.798-3.542-3.636l-4.888-1.857c0.050 0.085 0.107 0.159 0.172 0.225 1.097 1.164 3.159 2.623 3.77 3.041l0.026 0.018c0.362 0.248 0.596 0.66 0.596 1.126 0 0.285-0.088 0.55-0.238 0.769l-0.818-0.562c0.039-0.057 0.062-0.127 0.062-0.203 0-0.024-0.002-0.047-0.007-0.070-0.019-0.097-0.076-0.18-0.155-0.233l-0.034-0.023c-0.627-0.433-2.765-1.942-3.928-3.177-0.474-0.501-0.622-1.055-0.44-1.645 0.021-0.074 0.045-0.137 0.074-0.197l0.195-0.4 5.957 2.264c2.527 0.961 3.967 3.888 4.084 4.136 0.31 0.568 2.723 5.17 2.723 7.063z"></path>
<path d="M15.524 32l-0.75-3.378c-0.028-0.107-0.098-0.194-0.19-0.245l-8.196-4.665c-1.013-0.569-1.768-1.496-2.1-2.605l-4.288-14.847 0.782 0.162h0.032c0.691 0.077 1.245 0.495 1.645 1.241 0.944 1.741 3.464 6.238 4.504 8.090l0.080 0.143-0.868 0.481-0.078-0.138c-1.041-1.855-3.564-6.356-4.513-8.105l-0.020-0.036 3.669 12.699c0.264 0.887 0.851 1.607 1.621 2.040l8.214 4.673c0.335 0.19 0.579 0.506 0.67 0.881l0.753 3.393z"></path>
<path d="M20.5 15.321l-5.635-5.115c-1.091-0.976-1.886-2.263-2.246-3.72-0.239-1.020-0.179-1.637-0.149-1.831 0.252-2.699 2.19-4.654 4.613-4.654 1.385 0.003 2.619 0.645 3.423 1.648 0.85-0.998 2.104-1.637 3.508-1.648 2.426 0 4.364 1.958 4.615 4.657 0.029 0.194 0.090 0.82-0.138 1.778-0.372 1.509-1.166 2.795-2.249 3.767zM17.081 0.994c-1.903 0-3.43 1.585-3.626 3.769l-0.005 0.038c0 0.021-0.085 0.529 0.123 1.408 0.323 1.306 1.012 2.419 1.952 3.257l4.975 4.519 5.061-4.513c0.945-0.845 1.633-1.957 1.947-3.218 0.21-0.894 0.139-1.398 0.13-1.456v-0.032c-0.198-2.184-1.723-3.769-3.626-3.769-1.307 0.014-2.446 0.718-3.073 1.763l-0.441 0.739-0.423-0.722c-0.651-1.119-1.771-1.783-2.997-1.783z"></path>
</symbol>
<symbol id="icon-pdf_r" viewBox="0 0 28 32">
<title>pdf_r</title>
<path fill="#e2584c" style="fill: var(--color3, #e2584c)" d="M1.999 0h16.994l9.008 8.973v21.028c0 1.105-0.896 2.001-2.001 2.001h-24c-1.105 0-2.001-0.896-2.001-2.001v-27.991c0-1.105 0.896-2.001 2.001-2.001v0z"></path>
<path fill="#b63829" style="fill: var(--color4, #b63829)" d="M27.97 9.001h-6.965c-1.105 0-2.001-0.896-2.001-2.001v-6.979z"></path>
<path fill="#fff" style="fill: var(--color5, #fff)" d="M20.497 15.164c0.321 0 0.58-0.26 0.58-0.58s-0.26-0.58-0.58-0.58h-1.908c-0.323 0.008-0.583 0.272-0.583 0.596 0 0.019 0.001 0.037 0.003 0.056l-0 4.687c0 0.418 0.232 0.65 0.559 0.65s0.559-0.232 0.559-0.65v-1.286h1.161c0.298-0.002 0.538-0.243 0.538-0.541 0-0.016-0.001-0.031-0.002-0.046 0.001-0.009 0.001-0.022 0.001-0.035 0-0.294-0.238-0.532-0.532-0.532-0.002 0-0.004 0-0.006 0h-1.16v-1.748h1.37zM14.048 14.003h-1.393c-0.009-0.001-0.020-0.001-0.031-0.001-0.341 0-0.618 0.276-0.618 0.618 0 0.010 0 0.020 0.001 0.030l-0 4.695c-0 0.005-0 0.010-0 0.016 0 0.34 0.275 0.615 0.615 0.615 0.017 0 0.034-0.001 0.051-0.002l1.458 0c1.734 0 2.879-1.14 2.879-2.902 0-1.857-1.079-3.069-2.965-3.069v0zM14.115 18.818h-0.852v-3.656h0.766c1.161 0 1.667 0.78 1.667 1.857 0 1.005-0.497 1.802-1.581 1.802v0zM9.008 14.003h-1.393c-0.009-0-0.019-0.001-0.030-0.001-0.322 0-0.583 0.261-0.583 0.583 0 0.024 0.001 0.048 0.004 0.071l-0 4.687c-0.006 0.031-0.009 0.067-0.009 0.104 0 0.326 0.264 0.59 0.59 0.59s0.59-0.264 0.59-0.59c0-0.037-0.003-0.073-0.010-0.108l0.001-1.366h0.866c0.018 0.001 0.039 0.001 0.060 0.001 1.046 0 1.894-0.848 1.894-1.894 0-0.030-0.001-0.059-0.002-0.089 0.001-0.020 0.002-0.048 0.002-0.077 0-1.058-0.857-1.915-1.915-1.915-0.030 0-0.060 0.001-0.089 0.002l0.004-0zM8.984 16.873h-0.796v-1.769h0.796c0.45 0.048 0.798 0.425 0.798 0.884s-0.348 0.837-0.795 0.884l-0.004 0z"></path>
</symbol>
<symbol id="icon-podrska" viewBox="0 0 30 32">
<title>podrska</title>
<path d="M25.996 12.168v-1.23c0-2.944-1.042-5.68-2.931-7.711-1.852-1.988-4.484-3.228-7.406-3.228-0.034 0-0.067 0-0.101 0.001l-1.009-0c-0.028-0-0.062-0-0.096-0-2.922 0-5.555 1.24-7.401 3.222-1.895 2.037-2.937 4.772-2.937 7.717v1.23c-2.303 0.161-4.11 2.067-4.115 4.395v1.923c0.003 2.431 1.973 4.4 4.403 4.403h2.481c0.444-0.002 0.804-0.362 0.806-0.806v-9.12c-0.002-0.444-0.362-0.804-0.806-0.806h-1.156v-1.217c0-5.317 3.791-9.324 8.814-9.324h1.007c5.025 0 8.814 4.007 8.814 9.324v1.217h-1.156c-0.444 0.002-0.804 0.362-0.806 0.806v9.12c0.001 0.445 0.361 0.806 0.806 0.808h1.13c-0.329 4.208-3.227 5.183-4.571 5.397-0.382-1.145-1.445-1.956-2.696-1.956-0 0-0 0-0 0h-2.017c-1.534 0.041-2.762 1.294-2.762 2.834s1.228 2.793 2.758 2.833l2.027 0c1.297-0.003 2.389-0.875 2.725-2.064 1.029-0.165 1.952-0.492 2.777-0.97 1.422-0.835 3.15-2.575 3.378-6.085 2.313-0.148 4.133-2.059 4.135-4.396v-1.928c0-0.002 0-0.005 0-0.008 0-2.321-1.8-4.221-4.081-4.381l-0.014-0.001zM6.082 21.271h-1.675c-1.542 0-2.792-1.25-2.792-2.792v-1.923c0-1.542 1.25-2.792 2.792-2.792h1.675v7.502zM17.074 30.39h-2.023c-0.672 0-1.217-0.545-1.217-1.217s0.545-1.217 1.217-1.217h2.023c0.672 0 1.217 0.545 1.217 1.217s-0.545 1.217-1.217 1.217v0zM28.483 18.479c0 1.542-1.25 2.792-2.792 2.792h-1.675v-7.504h1.675c1.542 0 2.792 1.25 2.792 2.792v1.923z"></path>
</symbol>
<symbol id="icon-stednja" viewBox="0 0 32 32">
<title>stednja</title>
<path d="M12.738 32h-6.026v-0.877c-0.042-0.87-0.322-3.050-2.011-4.785-0.903-0.932-1.705-2.149-2.386-3.62l-0.006-0.012c-0.372-0.706-0.688-1.526-0.905-2.385-0.028-0.108-0.036-0.143-0.040-0.179-0.19-0.763-0.299-1.636-0.299-2.535 0-0.001 0-0.002 0-0.003-0-0.015-0-0.033-0-0.051 0-0.623 0.053-1.234 0.156-1.828l0.942 0.228c-0.089 0.495-0.14 1.064-0.14 1.646 0 0.002 0 0.004 0 0.006s0 0.003 0 0.005c0 0.832 0.102 1.641 0.295 2.413l-0-0.005c0.213 0.845 0.497 1.583 0.857 2.276-0.012-0.034 0.002-0.007 0.013 0.022 0.639 1.377 1.378 2.5 2.201 3.35 1.892 1.943 2.227 4.365 2.281 5.371h4.1v-0.76c0.001-0.395 0.175-0.75 0.45-0.992 0.231-0.207 0.537-0.333 0.872-0.333 0.064 0 0.128 0.005 0.19 0.014 0.615 0.084 1.334 0.134 2.064 0.134 0.5 0 1.034-0.029 1.634-0.088 0.043-0.005 0.092-0.008 0.142-0.008 0.732 0 1.325 0.592 1.326 1.324v0.702h4.096v-0.79c0.015-0.598 0.216-2.683 2.152-4.437l0.138-0.125h0.013l0.051-0.043 0.032-0.032c1.597-1.422 2.746-3.169 3.32-5.053 0.171-0.548 0.674-0.938 1.268-0.938 0 0 0.001 0 0.001 0h1.067c0.001 0 0.002 0 0.003 0 0.116 0 0.21-0.094 0.21-0.21 0-0.001 0-0.002-0-0.003v-3.791c0-0.001 0-0.002 0-0.003 0-0.116-0.094-0.21-0.21-0.21-0.001 0-0.002 0-0.003 0h-1.122c-0 0-0 0-0 0-0.585 0-1.081-0.38-1.256-0.906-0.663-2.020-1.952-3.84-3.729-5.274-0.285-0.227-0.472-0.568-0.493-0.952-0.347-1.276-0.198-2.617 0.429-3.927-1.599 0.391-2.485 1.251-2.96 1.952-0.241 0.354-0.642 0.583-1.097 0.583-0.143 0-0.282-0.023-0.411-0.065-0.78-0.257-1.712-0.465-2.672-0.582l0.039-0.966c1.099 0.133 2.092 0.354 3.045 0.662-0.080-0.020-0.041-0.014-0.001-0.014 0.124 0 0.234-0.062 0.3-0.158 0.661-0.981 1.968-2.21 4.452-2.522h0.054c0.006-0 0.012-0 0.019-0 0.309 0 0.56 0.251 0.56 0.56 0 0.098-0.025 0.19-0.069 0.27l-0.017 0.029c-0.834 1.329-1.085 2.703-0.724 3.971l0.018 0.065v0.080c0.003 0.106 0.053 0.2 0.13 0.263 1.931 1.555 3.324 3.531 4.043 5.719 0.049 0.146 0.183 0.249 0.342 0.251h1.13c0.65 0.001 1.177 0.527 1.178 1.178v3.791c-0.001 0.65-0.528 1.177-1.177 1.178h-1.067c-0.001 0-0.001 0-0.002 0-0.162 0-0.299 0.108-0.344 0.255-0.625 2.042-1.867 3.94-3.591 5.475v0l-0.031 0.029c-0.033 0.029-0.067 0.057-0.1 0.088s-0.055 0.046-0.082 0.070c-0.017 0.016-0.036 0.031-0.055 0.045-1.615 1.485-1.788 3.206-1.802 3.711v1.74h-6.029v-1.667c0-0.001 0-0.003 0-0.004 0-0.103-0.046-0.196-0.118-0.259-0.063-0.060-0.148-0.096-0.241-0.096-0.012 0-0.024 0.001-0.036 0.002l-0.007-0c-0.634 0.063-1.2 0.094-1.732 0.094-0.779-0-1.545-0.053-2.296-0.154 0.074 0.008 0.057 0.006 0.040 0.006-0.091 0-0.174 0.035-0.236 0.091-0.075 0.066-0.123 0.162-0.125 0.27v1.725zM3.184 22.3l0.005 0.012z"></path>
<path d="M7.047 14.092c-3.892 0-7.046-3.155-7.046-7.046s3.155-7.046 7.046-7.046c3.891 0 7.046 3.155 7.046 7.046-0.005 3.89-3.156 7.042-7.046 7.046zM7.047 0.965c-3.358 0-6.081 2.723-6.081 6.081s2.723 6.081 6.081 6.081c3.358 0 6.081-2.723 6.081-6.081-0.004-3.357-2.724-6.077-6.081-6.081z"></path>
</symbol>
<symbol id="icon-strelica_d" viewBox="0 0 34 32">
<title>strelica_d</title>
<path d="M1.712 32l-1.712-1.712 14.425-14.425-14.15-14.15 1.712-1.712 15.862 15.862-16.138 16.138z"></path>
<path d="M17.575 32l-1.717-1.712 14.43-14.425-14.15-14.15 1.712-1.712 15.858 15.862-16.133 16.138z"></path>
</symbol>
<symbol id="icon-strelica_duga" viewBox="0 0 140 32">
<title>strelica_duga</title>
<path d="M122.717 0l-2.671 2.863 12.506 11.628h-132.552v3.010h132.56l-12.514 11.636 2.671 2.863 17.206-15.996-17.206-16.004z"></path>
</symbol>
<symbol id="icon-arow_lead" viewBox="0 0 37 32">
<title>arow_lead</title>
<path d="M0 15.976c0-0.684 0.244-1.221 0.684-1.71 0.489-0.44 1.026-0.684 1.71-0.684h25.111l-9.478-9.478c-0.489-0.489-0.733-1.026-0.733-1.71s0.244-1.221 0.733-1.661c0.44-0.489 1.026-0.733 1.661-0.733s1.221 0.244 1.71 0.733l15.243 15.243-15.243 15.292c-0.537 0.489-1.075 0.733-1.71 0.733s-1.173-0.244-1.661-0.733c-0.489-0.489-0.733-1.075-0.733-1.71s0.244-1.221 0.733-1.661l9.478-9.478h-25.111c-0.684 0-1.221-0.244-1.71-0.684-0.44-0.537-0.684-1.075-0.684-1.759z"></path>
</symbol>
<symbol id="icon-arow_one" viewBox="0 0 18 32">
<title>arow_one</title>
<path d="M1.72 32l-1.72-1.708 14.432-14.432-14.152-14.14 1.708-1.72 15.86 15.86-16.128 16.14z"></path>
</symbol>
<symbol id="icon-arow_pag" viewBox="0 0 34 32">
<title>arow_pag</title>
<path d="M1.72 32l-1.72-1.708 14.432-14.432-14.152-14.14 1.708-1.72 15.86 15.86-16.128 16.14z"></path>
<path d="M17.58 32l-1.72-1.708 14.432-14.432-14.152-14.14 1.708-1.72 15.86 15.86-16.128 16.14z"></path>
</symbol>
<symbol id="icon-facebook" viewBox="0 0 15 32">
<title>facebook</title>
<path d="M3.26 6.196v4.405h-3.23v5.384h3.23v16.015h6.627v-16.005h4.454s0.421-2.584 0.617-5.404h-5.041v-3.681c0.127-0.706 0.714-1.243 1.434-1.292h3.617v-5.609h-4.894c-6.96 0-6.793 5.394-6.793 6.196v0z"></path>
</symbol>
<symbol id="icon-favorite" viewBox="0 0 34 32">
<title>favorite</title>
<path d="M33.475 12.099c-0.116-0.331-0.402-0.575-0.751-0.626l-10.463-1.495-4.758-9.462c-0.153-0.31-0.467-0.52-0.83-0.52s-0.677 0.21-0.828 0.515l-4.65 9.486-10.458 1.549c-0.354 0.052-0.641 0.296-0.754 0.62-0.029 0.089-0.044 0.184-0.044 0.283 0 0.261 0.108 0.496 0.282 0.664l7.581 7.378-1.844 10.421c-0.007 0.044-0.012 0.095-0.012 0.148 0 0.517 0.417 0.937 0.933 0.941 0.156-0.001 0.302-0.042 0.429-0.113l9.328-4.941 9.369 4.888c0.123 0.066 0.268 0.107 0.423 0.111 0.506-0.010 0.913-0.417 0.923-0.921 0.005-0.034 0.009-0.073 0.009-0.112s-0.003-0.077-0.009-0.115l-1.844-10.343 7.544-7.378c0.178-0.166 0.29-0.401 0.29-0.663 0-0.106-0.018-0.208-0.052-0.302l0.002 0.006zM24.051 19.477c-0.17 0.167-0.275 0.4-0.275 0.657 0 0.061 0.006 0.121 0.017 0.179l1.567 9.032-8.134-4.242c-0.126-0.067-0.275-0.106-0.433-0.106s-0.308 0.039-0.439 0.108l-8.073 4.258 1.512-9.037c0.007-0.043 0.011-0.092 0.011-0.142 0-0.263-0.11-0.501-0.287-0.669l-6.585-6.382 9.074-1.346c0.311-0.046 0.568-0.242 0.698-0.511l4.042-8.231 4.095 8.207c0.135 0.272 0.391 0.467 0.695 0.516l9.080 1.292z"></path>
</symbol>
<symbol id="icon-gp" viewBox="0 0 31 32">
<title>gp</title>
<path d="M20.974 0h-8.657c-0.182-0.010-0.394-0.016-0.608-0.016-2.611 0-5.018 0.873-6.946 2.343-1.579 1.344-2.603 3.353-2.644 5.601 0.026 3.657 2.99 6.606 6.644 6.606 0.116 0 0.231-0.003 0.346-0.009 0.403 0.001 0.875 0.001 1.329-0.079-0.255 0.475-0.411 1.037-0.427 1.634 0.064 1.122 0.535 2.117 1.265 2.856-1.889 0.124-5.424 0.338-8.016 1.932-1.874 0.996-3.15 2.9-3.241 5.109 0 3.12 2.939 6.015 9.039 6.015 7.232 0 11.062-3.99 11.062-7.935 0-2.895-1.683-4.328-3.562-5.878l-1.514-1.176c-0.611-0.382-1.026-1.027-1.086-1.773 0.093-0.854 0.531-1.583 1.167-2.060 1.789-1.395 3.57-2.864 3.57-5.973-0.042-2.334-1.201-4.389-2.963-5.659l2.588-0.014zM17.278 25.703c0 2.601-2.146 4.533-6.181 4.533-4.453 0-7.401-2.146-7.401-5.121s2.672-3.99 3.616-4.328c1.329-0.402 2.858-0.644 4.44-0.668 0.158-0.011 0.327-0.017 0.498-0.017s0.34 0.006 0.508 0.018c3.175 2.27 4.564 3.401 4.564 5.538v0zM13.912 12.139c-0.747 0.705-1.749 1.148-2.853 1.175-3.621 0-5.26-4.658-5.26-7.472-0.006-0.089-0.009-0.192-0.009-0.296 0-1.055 0.337-2.031 0.91-2.827 0.704-0.823 1.752-1.356 2.926-1.375 3.495 0 5.303 4.702 5.303 7.722 0.005 0.077 0.008 0.167 0.008 0.258 0 1.078-0.401 2.062-1.063 2.811l0.004-0.005z"></path>
<path d="M30.602 9.218h-2.886v2.877h-2.048v-2.877h-2.886v-2.048h2.886v-2.886h2.048v2.886h2.886v2.048z"></path>
</symbol>
<symbol id="icon-instagram" viewBox="0 0 32 32">
<title>instagram</title>
<path d="M8.066 32h15.838c4.46 0 8.076-3.616 8.076-8.076v-15.858c0-4.46-3.616-8.076-8.076-8.076h-15.858c-4.458 0.006-8.070 3.618-8.076 8.075v15.859c0 0 0 0 0 0 0 4.46 3.616 8.076 8.076 8.076 0.007 0 0.014 0 0.021 0zM3.475 8.076c0-2.536 2.055-4.591 4.591-4.591h15.838c2.536 0 4.591 2.055 4.591 4.591v15.858c0 2.536-2.055 4.591-4.591 4.591h-15.858c-2.536 0-4.591-2.055-4.591-4.591v-15.858z"></path>
<path d="M26.45 7.508c0 1.076-0.872 1.948-1.948 1.948s-1.948-0.872-1.948-1.948c0-1.076 0.872-1.948 1.948-1.948s1.948 0.872 1.948 1.948z"></path>
<path d="M15.995 24.247c4.552 0 8.242-3.69 8.242-8.242s-3.69-8.242-8.242-8.242c-4.552 0-8.242 3.69-8.242 8.242 0.006 4.55 3.692 8.237 8.242 8.242zM15.995 11.247c2.627 0 4.757 2.13 4.757 4.757s-2.13 4.757-4.757 4.757c-2.627 0-4.757-2.13-4.757-4.757 0.006-2.625 2.132-4.752 4.757-4.757z"></path>
</symbol>
<symbol id="icon-link2" viewBox="0 0 34 32">
<title>link2</title>
<path d="M18.162 13.715c-0.176 0.174-0.285 0.415-0.285 0.681s0.109 0.508 0.285 0.681c0.723 0.723 1.169 1.721 1.169 2.824s-0.447 2.101-1.169 2.824l-8.182 8.182c-0.723 0.723-1.721 1.169-2.824 1.169s-2.101-0.447-2.824-1.169l-1.232-1.232c-0.723-0.723-1.169-1.721-1.169-2.824s0.447-2.101 1.169-2.824l8.182-8.182c0.194-0.177 0.315-0.431 0.315-0.713 0-0.533-0.432-0.964-0.964-0.964-0.282 0-0.536 0.121-0.712 0.314l-8.182 8.167c-1.072 1.070-1.735 2.549-1.735 4.183s0.663 3.113 1.735 4.183l1.232 1.232c1.072 1.071 2.552 1.733 4.187 1.733s3.115-0.662 4.187-1.733l8.182-8.182c1.068-1.071 1.729-2.55 1.729-4.183s-0.661-3.111-1.729-4.183c-0.173-0.176-0.415-0.285-0.681-0.285s-0.508 0.109-0.681 0.285v0z"></path>
<path d="M32.628 2.962l-1.232-1.232c-1.072-1.071-2.552-1.733-4.187-1.733s-3.115 0.662-4.187 1.733l-8.189 8.205c-1.068 1.071-1.729 2.55-1.729 4.183s0.661 3.111 1.729 4.183c0.177 0.194 0.431 0.315 0.713 0.315 0.533 0 0.964-0.432 0.964-0.964 0-0.282-0.121-0.536-0.314-0.712-0.723-0.724-1.17-1.722-1.17-2.825s0.447-2.101 1.169-2.824l8.182-8.182c0.723-0.723 1.721-1.169 2.824-1.169s2.101 0.447 2.824 1.169l1.232 1.232c0.723 0.723 1.169 1.721 1.169 2.824s-0.447 2.101-1.169 2.824l-8.182 8.182c-0.174 0.174-0.282 0.415-0.282 0.681 0 0.529 0.427 0.959 0.955 0.964 0.002 0 0.003 0 0.004 0 0.263 0 0.5-0.108 0.67-0.283l8.182-8.182c1.070-1.071 1.732-2.549 1.732-4.183s-0.662-3.112-1.732-4.183v0z"></path>
</symbol>
<symbol id="icon-ln" viewBox="0 0 34 32">
<title>ln</title>
<path d="M33.484 19.623v12.377h-7.179v-11.544c0-2.872-1.034-4.882-3.637-4.882-1.694 0.008-3.134 1.087-3.677 2.595-0.163 0.484-0.253 1.011-0.253 1.558 0 0.078 0.002 0.155 0.005 0.232v12.050h-7.179s0.096-19.566 0-21.595h7.179v3.063c1.255-2.153 3.552-3.576 6.182-3.576 0.102 0 0.203 0.002 0.303 0.006 4.714 0 8.246 3.082 8.246 9.715v0zM4.059 0c-0.093-0.008-0.202-0.013-0.311-0.013-2.067 0-3.743 1.676-3.743 3.743s1.676 3.743 3.743 3.743c0.076 0 0.151-0.002 0.226-0.007h-0.010c0.080 0.006 0.173 0.010 0.267 0.010 2.067 0 3.743-1.676 3.743-3.743s-1.676-3.743-3.743-3.743c-0.094 0-0.187 0.003-0.28 0.010l0.012-0.001zM0.421 32h7.17v-21.585h-7.179v21.585z"></path>
</symbol>
<symbol id="icon-pdf" viewBox="0 0 28 32">
<title>pdf</title>
<path fill="#000" opacity="0.6" style="fill: var(--color2, #000)" d="M8.975 15.112h-0.796v1.801h0.796c0.497 0 0.901-0.403 0.901-0.901s-0.403-0.901-0.901-0.901z"></path>
<path fill="#000" opacity="0.6" style="fill: var(--color2, #000)" d="M14.026 15.167h-0.765v3.658h0.851c1.086 0 1.579-0.796 1.579-1.801s-0.5-1.857-1.665-1.857z"></path>
<path fill="#000" opacity="0.6" style="fill: var(--color2, #000)" d="M18.961 0h-16.962c-1.104 0-1.998 0.895-1.998 1.998v27.997c0 1.104 0.895 1.998 1.998 1.998h24c1.104 0 1.998-0.895 1.998-1.998v-21.021zM9.018 17.98h-0.87v1.4c0.020 0.058 0.031 0.124 0.031 0.193 0 0.341-0.276 0.617-0.617 0.617s-0.617-0.276-0.617-0.617c0-0.069 0.011-0.135 0.032-0.197l-0.001-4.683c-0.003-0.021-0.004-0.045-0.004-0.069 0-0.32 0.26-0.58 0.58-0.58 0.014 0 0.029 0.001 0.043 0.002h1.38c0.024-0.001 0.053-0.002 0.082-0.002 1.059 0 1.918 0.859 1.918 1.918 0 0.027-0.001 0.053-0.002 0.080 0.001 0.011 0.001 0.028 0.001 0.046 0 1.046-0.848 1.894-1.894 1.894-0.011 0-0.022 0-0.033 0zM14.1 19.978h-1.431c-0.015 0.001-0.032 0.002-0.049 0.002-0.341 0-0.617-0.276-0.617-0.617 0-0.001 0-0.001 0-0.002v-4.694c0 0 0-0.001 0-0.001 0-0.341 0.276-0.617 0.617-0.617 0.011 0 0.022 0 0.032 0.001h1.374c1.887 0 2.961 1.234 2.967 3.084 0.003 0.046 0.004 0.099 0.004 0.152 0 1.499-1.215 2.714-2.714 2.714-0.054 0-0.107-0.002-0.16-0.005zM20.466 15.155h-1.369v1.758h1.153c0.002 0 0.005 0 0.007 0 0.293 0 0.53 0.238 0.53 0.53 0 0.013 0 0.026-0.001 0.039 0.001 0.011 0.002 0.026 0.002 0.041 0 0.298-0.241 0.54-0.538 0.543h-1.154v1.314c0.006 0.031 0.009 0.066 0.009 0.102 0 0.313-0.254 0.567-0.567 0.567s-0.567-0.254-0.567-0.567c0-0.036 0.003-0.071 0.010-0.106l-0.001-4.684c-0.001-0.010-0.001-0.021-0.001-0.032 0-0.328 0.256-0.596 0.579-0.616h1.908c0.254 0.065 0.439 0.292 0.439 0.563 0 0.259-0.17 0.478-0.404 0.553z"></path>
<path fill="#000" style="fill: var(--color2, #000)" d="M27.966 8.999h-6.97c-1.104 0-1.998-0.895-1.998-1.998v-6.982z"></path>
</symbol>
<symbol id="icon-replay" viewBox="0 0 38 32">
<title>replay</title>
<path d="M14.931 8.535v-8.535l-14.931 14.931 14.912 14.912v-8.737c10.673 0 18.138 3.41 23.465 10.876-2.138-10.673-8.535-21.327-23.465-23.465v0z"></path>
</symbol>
<symbol id="icon-retweet" viewBox="0 0 54 32">
<title>retweet</title>
<path d="M10.942 32c-1.125 0-2.038-0.912-2.038-2.038v-16.523h-8.904l12.099-13.237 12.099 13.237h-8.923v12.209h9.565l6.26 6.407h-20.195zM54.325 18.543h-8.886v-16.523c0 0 0 0 0 0 0-1.119-0.902-2.027-2.019-2.038h-20.196l6.279 6.407h9.547v12.154h-8.904l12.099 13.237z"></path>
</symbol>
<symbol id="icon-search" viewBox="0 0 32 32">
<title>search</title>
<path d="M19.733 5.6c-1.92-1.973-4.267-2.933-7.040-2.933s-5.12 0.96-7.093 2.933-2.933 4.267-2.933 7.093 0.96 5.12 2.933 7.093 4.32 2.933 7.093 2.933 5.12-1.013 7.040-2.987c2.027-2.027 2.987-4.373 2.987-7.093s-0.96-5.067-2.987-7.040zM23.36 19.52l-0.32 0.587 9.013 9.067-2.88 2.827-9.013-9.067-0.587 0.427c-2.24 1.387-4.533 2.080-6.933 2.080-3.52 0-6.507-1.227-8.96-3.733s-3.733-5.493-3.733-9.013 1.28-6.507 3.787-8.96c2.453-2.453 5.44-3.733 8.96-3.733s6.507 1.227 8.96 3.733c2.453 2.453 3.733 5.44 3.733 8.96-0.053 2.4-0.693 4.693-2.027 6.827z"></path>
</symbol>
<symbol id="icon-speech" viewBox="0 0 34 32">
<title>speech</title>
<path d="M29.534 23.909c0.031 0.001 0.068 0.001 0.105 0.001 2.599 0 4.717-2.063 4.804-4.641v-14.588c-0.088-2.598-2.215-4.671-4.827-4.671-0.029 0-0.058 0-0.086 0.001h-24.996c0 0-0.001 0-0.002 0-2.51 0-4.545 2.035-4.545 4.545 0 0.044 0.001 0.088 0.002 0.131v14.584c-0.001 0.030-0.001 0.066-0.001 0.102 0 2.51 2.035 4.545 4.545 4.545 0 0 0.001 0 0.001 0h2.114v7.114c0 0.002 0 0.003 0 0.005 0 0.372 0.21 0.694 0.517 0.856 0.13 0.071 0.278 0.113 0.436 0.116 0.009 0 0.018 0 0.028 0 0.203 0 0.391-0.064 0.544-0.173l10.793-7.953h10.511zM32.523 19.261c-0.086 1.531-1.349 2.74-2.893 2.74-0.033 0-0.067-0.001-0.1-0.002h-10.825c-0.014-0.001-0.030-0.001-0.046-0.001-0.195 0-0.376 0.060-0.526 0.162l-9.52 6.975v-6.273c-0.006-0.498-0.411-0.899-0.909-0.899-0.016 0-0.032 0-0.048 0.001h-3.066c-0.007 0-0.016 0-0.025 0-1.456 0-2.636-1.18-2.636-2.636 0-0.036 0.001-0.072 0.002-0.108v-14.54c-0.002-0.034-0.002-0.074-0.002-0.114 0-1.456 1.18-2.636 2.636-2.636 0.009 0 0.018 0 0.027 0h24.999c0.019 0 0.040-0.001 0.062-0.001 1.555 0 2.828 1.211 2.926 2.742v14.599z"></path>
</symbol>
<symbol id="icon-speech1" viewBox="0 0 35 32">
<title>speech1</title>
<path d="M6.557 31.955v-7.886l-6.568-0.068v-24h35.227v24h-17.148zM2.011 22.034l6.568 0.068v6.080l8.909-6.148h15.773v-20.057h-31.25v20.091z"></path>
</symbol>
<symbol id="icon-twitter" viewBox="0 0 46 32">
<title>twitter</title>
<path d="M41.193 14.235c2.586-0.22 4.383-1.396 5.055-3.013-1.039 0.501-2.259 0.793-3.547 0.793-0.701 0-1.381-0.087-2.031-0.249-0.020-0.363-0.111-0.725-0.188-1.048-1.293-4.512-5.443-8.158-9.852-7.758 0.349-0.142 0.724-0.284 1.073-0.401s3.336-0.634 2.883-1.642-3.879 0.672-4.512 0.866c0.866-0.323 2.301-0.879 2.444-1.875-1.414 0.215-2.656 0.83-3.639 1.725 0.368-0.369 0.618-0.844 0.702-1.374-3.528 2.248-5.597 6.8-7.264 11.209-1.026-1.072-2.181-2.009-3.442-2.788-3.357-1.827-7.29-3.597-11.357-5.087-0.807 1.618 0.253 4.023 3.33 5.639-0.088-0.003-0.191-0.004-0.294-0.004-0.912 0-1.794 0.124-2.632 0.357 0.47 2.065 1.763 3.785 5.241 4.612-0.037-0.001-0.081-0.002-0.125-0.002-1.199 0-2.282 0.496-3.055 1.294 0.92 1.731 2.712 2.889 4.774 2.889 0.332 0 0.657-0.030 0.973-0.087-3.601 1.544-1.481 4.388 1.415 3.961-2.243 2.316-5.381 3.754-8.855 3.754-3.24 0-6.188-1.25-8.387-3.295 11.644 15.949 37.128 9.432 40.916-5.915 0.153 0.012 0.331 0.018 0.51 0.018 1.972 0 3.755-0.808 5.036-2.112-0.458 0.065-0.989 0.103-1.528 0.103-1.338 0-2.621-0.232-3.813-0.659l0.079 0.025z"></path>
</symbol>
</defs>
</svg>
