<svg id="Grid" xmlns="http://www.w3.org/2000/svg" viewBox="0 0 100.63 29.82"><defs><style>.cls-1{fill:#a8a8a8;}.cls-2{fill:#fff;}</style></defs><title>apple</title><rect class="cls-1" width="100.63" height="29.82" rx="2.68" ry="2.68"/><path class="cls-2" d="M812.91,2079.19a4.32,4.32,0,0,1,2.06-3.63,4.43,4.43,0,0,0-3.49-1.89c-1.47-.15-2.89.88-3.64,0.88s-1.91-.86-3.15-0.84a4.64,4.64,0,0,0-3.91,2.38c-1.69,2.93-.43,7.23,1.19,9.59,0.81,1.16,1.76,2.45,3,2.41s1.66-.77,3.13-0.77,1.87,0.77,3.14.74,2.12-1.16,2.9-2.33a9.58,9.58,0,0,0,1.33-2.7A4.18,4.18,0,0,1,812.91,2079.19Z" transform="translate(-789.35 -2064.42)"/><path class="cls-2" d="M810.52,2072.12a4.26,4.26,0,0,0,1-3,4.34,4.34,0,0,0-2.8,1.45,4.05,4.05,0,0,0-1,2.94A3.58,3.58,0,0,0,810.52,2072.12Z" transform="translate(-789.35 -2064.42)"/><path class="cls-2" d="M830.46,2087.93h-1.69l-0.93-2.92h-3.22l-0.88,2.92h-1.65l3.2-9.93h2Zm-2.9-4.14-0.84-2.59q-0.13-.4-0.5-1.87h0q-0.15.63-.47,1.87l-0.83,2.59h2.67Z" transform="translate(-789.35 -2064.42)"/><path class="cls-2" d="M838.66,2084.26a4.05,4.05,0,0,1-1,2.88,2.91,2.91,0,0,1-2.21.94,2.21,2.21,0,0,1-2-1v3.76h-1.59v-7.71q0-1.15-.06-2.35h1.4l0.09,1.13h0a2.83,2.83,0,0,1,4.53-.28A4,4,0,0,1,838.66,2084.26Zm-1.62.06a3,3,0,0,0-.47-1.72,1.63,1.63,0,0,0-1.38-.71,1.65,1.65,0,0,0-1.07.39,1.81,1.81,0,0,0-.63,1,2.08,2.08,0,0,0-.07.48V2085a1.92,1.92,0,0,0,.48,1.32,1.59,1.59,0,0,0,1.24.54,1.63,1.63,0,0,0,1.4-.69A3,3,0,0,0,837,2084.32Z" transform="translate(-789.35 -2064.42)"/><path class="cls-2" d="M846.9,2084.26a4.05,4.05,0,0,1-1,2.88,2.91,2.91,0,0,1-2.21.94,2.21,2.21,0,0,1-2-1v3.76h-1.59v-7.71q0-1.15-.06-2.35h1.4l0.09,1.13h0a2.83,2.83,0,0,1,4.53-.28A4,4,0,0,1,846.9,2084.26Zm-1.62.06a3,3,0,0,0-.47-1.72,1.63,1.63,0,0,0-1.38-.71,1.66,1.66,0,0,0-1.07.39,1.81,1.81,0,0,0-.63,1,2.12,2.12,0,0,0-.07.48V2085a1.92,1.92,0,0,0,.48,1.32,1.59,1.59,0,0,0,1.25.54,1.63,1.63,0,0,0,1.4-.69A3.05,3.05,0,0,0,845.28,2084.32Z" transform="translate(-789.35 -2064.42)"/><path class="cls-2" d="M856.1,2085.14a2.65,2.65,0,0,1-.88,2.06,3.91,3.91,0,0,1-2.7.87,4.72,4.72,0,0,1-2.57-.62l0.37-1.33a4.42,4.42,0,0,0,2.3.62,2.16,2.16,0,0,0,1.4-.41,1.32,1.32,0,0,0,.5-1.08,1.39,1.39,0,0,0-.41-1,3.84,3.84,0,0,0-1.37-.76q-2.61-1-2.61-2.84a2.51,2.51,0,0,1,.92-2,3.64,3.64,0,0,1,2.44-.78,4.8,4.8,0,0,1,2.25.47l-0.4,1.3a3.93,3.93,0,0,0-1.91-.46,1.94,1.94,0,0,0-1.32.41,1.18,1.18,0,0,0-.4.9,1.21,1.21,0,0,0,.46,1,5.16,5.16,0,0,0,1.44.77,4.88,4.88,0,0,1,1.88,1.21A2.51,2.51,0,0,1,856.1,2085.14Z" transform="translate(-789.35 -2064.42)"/><path class="cls-2" d="M861.37,2082h-1.75v3.47q0,1.33.93,1.32a2.84,2.84,0,0,0,.71-0.07l0,1.21a3.62,3.62,0,0,1-1.24.18,1.91,1.91,0,0,1-1.47-.58,2.82,2.82,0,0,1-.53-1.93V2082h-1v-1.19h1v-1.31l1.56-.47v1.78h1.75v1.2Z" transform="translate(-789.35 -2064.42)"/><path class="cls-2" d="M869.26,2084.29a3.92,3.92,0,0,1-.94,2.71,3.36,3.36,0,0,1-2.62,1.09,3.2,3.2,0,0,1-2.51-1,3.81,3.81,0,0,1-.94-2.63,3.89,3.89,0,0,1,1-2.72,3.34,3.34,0,0,1,2.6-1.06,3.27,3.27,0,0,1,2.53,1A3.76,3.76,0,0,1,869.26,2084.29Zm-1.65,0a3.21,3.21,0,0,0-.42-1.69,1.58,1.58,0,0,0-1.43-.85,1.6,1.6,0,0,0-1.46.85,3.25,3.25,0,0,0-.43,1.72,3.19,3.19,0,0,0,.43,1.69,1.63,1.63,0,0,0,2.87,0A3.21,3.21,0,0,0,867.61,2084.33Z" transform="translate(-789.35 -2064.42)"/><path class="cls-2" d="M874.43,2082.17a2.72,2.72,0,0,0-.5,0,1.5,1.5,0,0,0-1.3.63,2.39,2.39,0,0,0-.4,1.41v3.76h-1.59V2083c0-.82,0-1.58,0-2.25H872l0.06,1.37h0a2.46,2.46,0,0,1,.8-1.13,1.92,1.92,0,0,1,1.15-.38,2.79,2.79,0,0,1,.4,0v1.52h0Z" transform="translate(-789.35 -2064.42)"/><path class="cls-2" d="M881.54,2084a3.75,3.75,0,0,1-.06.72h-4.77a2.08,2.08,0,0,0,.69,1.62,2.37,2.37,0,0,0,1.56.5,5.27,5.27,0,0,0,1.93-.34l0.25,1.1a6,6,0,0,1-2.4.44,3.48,3.48,0,0,1-2.61-1,3.62,3.62,0,0,1-.95-2.63,4.1,4.1,0,0,1,.88-2.69,3,3,0,0,1,2.5-1.15,2.67,2.67,0,0,1,2.34,1.15A3.86,3.86,0,0,1,881.54,2084Zm-1.52-.41a2.15,2.15,0,0,0-.31-1.22,1.39,1.39,0,0,0-1.27-.66,1.51,1.51,0,0,0-1.27.65,2.38,2.38,0,0,0-.47,1.24H880Z" transform="translate(-789.35 -2064.42)"/><path class="cls-2" d="M826.79,2074.45H826l-0.46-1.43h-1.58l-0.43,1.43h-0.81l1.57-4.88h1Zm-1.42-2-0.41-1.27c0-.13-0.12-0.43-0.25-0.92h0c-0.05.21-.12,0.51-0.23,0.92l-0.4,1.27h1.31Z" transform="translate(-789.35 -2064.42)"/><path class="cls-2" d="M830.72,2070.93l-1.33,3.52h-0.76l-1.29-3.52h0.84l0.6,1.86c0.1,0.31.19,0.61,0.25,0.89h0c0.06-.25.15-0.55,0.25-0.89l0.59-1.86h0.82Z" transform="translate(-789.35 -2064.42)"/><path class="cls-2" d="M833.56,2074.45l-0.06-.4h0a1.2,1.2,0,0,1-1,.48,1,1,0,0,1-1.08-1c0-.87.75-1.32,2.06-1.32v-0.06a0.63,0.63,0,0,0-.73-0.7,1.64,1.64,0,0,0-.92.26l-0.16-.51a2.26,2.26,0,0,1,1.21-.3,1.26,1.26,0,0,1,1.38,1.46v1.3a5.25,5.25,0,0,0,.05.84h-0.7Zm-0.11-1.75c-0.87,0-1.3.21-1.3,0.71a0.5,0.5,0,0,0,.54.55,0.75,0.75,0,0,0,.77-0.72v-0.54Z" transform="translate(-789.35 -2064.42)"/><path class="cls-2" d="M836,2070.35a0.47,0.47,0,1,1,.49-0.47A0.46,0.46,0,0,1,836,2070.35Zm0.41,4.1h-0.78v-3.52h0.78v3.52Z" transform="translate(-789.35 -2064.42)"/><path class="cls-2" d="M838.53,2074.45h-0.78v-5.13h0.78v5.13Z" transform="translate(-789.35 -2064.42)"/><path class="cls-2" d="M841.85,2074.45l-0.06-.4h0a1.2,1.2,0,0,1-1,.48,1,1,0,0,1-1.08-1c0-.87.75-1.32,2.06-1.32v-0.06a0.63,0.63,0,0,0-.73-0.7,1.64,1.64,0,0,0-.92.26l-0.16-.51a2.25,2.25,0,0,1,1.21-.3,1.26,1.26,0,0,1,1.38,1.45v1.3a5.45,5.45,0,0,0,0,.84h-0.7Zm-0.11-1.75c-0.87,0-1.3.21-1.3,0.71a0.5,0.5,0,0,0,.54.55,0.75,0.75,0,0,0,.77-0.72v-0.54Z" transform="translate(-789.35 -2064.42)"/><path class="cls-2" d="M845.67,2074.53a1.19,1.19,0,0,1-1.11-.62h0l0,0.54h-0.67c0-.28,0-0.6,0-0.95v-4.18h0.78v2.13h0a1.21,1.21,0,0,1,1.12-.59,1.56,1.56,0,0,1,1.44,1.78A1.69,1.69,0,0,1,845.67,2074.53Zm-0.16-3.05a0.9,0.9,0,0,0-.86.93V2073a0.86,0.86,0,0,0,.85.88A1.26,1.26,0,0,0,845.51,2071.47Z" transform="translate(-789.35 -2064.42)"/><path class="cls-2" d="M849.16,2074.45h-0.78v-5.13h0.78v5.13Z" transform="translate(-789.35 -2064.42)"/><path class="cls-2" d="M853.42,2072.88h-2.35a1,1,0,0,0,1.11,1,2.63,2.63,0,0,0,.95-0.17l0.12,0.54a2.94,2.94,0,0,1-1.18.22,1.63,1.63,0,0,1-1.75-1.77,1.72,1.72,0,0,1,1.66-1.89,1.48,1.48,0,0,1,1.46,1.67A1.52,1.52,0,0,1,853.42,2072.88Zm-0.72-.56a0.8,0.8,0,0,0-.77-0.93,0.93,0.93,0,0,0-.86.93h1.63Z" transform="translate(-789.35 -2064.42)"/><path class="cls-2" d="M858.15,2074.53a1.67,1.67,0,0,1-1.69-1.81,1.71,1.71,0,0,1,1.75-1.86,1.66,1.66,0,0,1,1.69,1.8A1.72,1.72,0,0,1,858.15,2074.53Zm0-3.1a1.32,1.32,0,0,0,0,2.52,1.1,1.1,0,0,0,.92-1.27A1.08,1.08,0,0,0,858.18,2071.43Z" transform="translate(-789.35 -2064.42)"/><path class="cls-2" d="M864.11,2074.45h-0.78v-2c0-.62-0.24-0.93-0.71-0.93a0.81,0.81,0,0,0-.78.86v2.09h-0.78v-2.51c0-.31,0-0.64,0-1h0.69l0,0.54h0a1.26,1.26,0,0,1,1.11-.61,1.28,1.28,0,0,1,1.22,1.48v2.11h0Z" transform="translate(-789.35 -2064.42)"/><path class="cls-2" d="M869.22,2071.52h-0.86v1.71q0,0.65.46,0.65a1.53,1.53,0,0,0,.35,0l0,0.59a1.74,1.74,0,0,1-.61.09,1,1,0,0,1-1-1.23v-1.78h-0.51v-0.59h0.51v-0.64l0.77-.23v0.88h0.86v0.59Z" transform="translate(-789.35 -2064.42)"/><path class="cls-2" d="M873.36,2074.45h-0.78v-2c0-.63-0.24-0.95-0.71-0.95a0.77,0.77,0,0,0-.78.83v2.12h-0.78v-5.13h0.78v2.11h0a1.18,1.18,0,0,1,1.06-.57,1.27,1.27,0,0,1,1.2,1.5v2.09Z" transform="translate(-789.35 -2064.42)"/><path class="cls-2" d="M877.35,2072.88H875a1,1,0,0,0,1.11,1,2.62,2.62,0,0,0,.95-0.17l0.12,0.54a2.94,2.94,0,0,1-1.18.22,1.63,1.63,0,0,1-1.75-1.77,1.72,1.72,0,0,1,1.66-1.89,1.48,1.48,0,0,1,1.46,1.67A1.54,1.54,0,0,1,877.35,2072.88Zm-0.72-.56a0.8,0.8,0,0,0-.77-0.93,0.93,0.93,0,0,0-.85.93h1.63Z" transform="translate(-789.35 -2064.42)"/></svg>