<?xml version="1.0" encoding="utf-8"?>
<!-- Generator: Adobe Illustrator 19.2.0, SVG Export Plug-In . SVG Version: 6.00 Build 0)  -->
<svg version="1.1" id="Layer_1" xmlns="http://www.w3.org/2000/svg" xmlns:xlink="http://www.w3.org/1999/xlink" x="0px" y="0px"
	 viewBox="0 0 211 44" style="enable-background:new 0 0 211 44;" xml:space="preserve">
<style type="text/css">
	.st0{fill:#FC0019;}
	.st1{fill:#FFFFFF;}
	.st2{fill-rule:evenodd;clip-rule:evenodd;fill:#FC0019;}
	.st3{fill-rule:evenodd;clip-rule:evenodd;fill:#231F20;}
	.st4{fill-rule:evenodd;clip-rule:evenodd;fill:#FFFFFF;}
</style>
<rect x="9.2" y="7.1" class="st0" width="28.3" height="14.5"/>
<g>
	<g>
		<rect x="9.2" y="7.1" class="st1" width="29.8" height="29.8"/>
		<rect x="9.9" y="7.8" class="st2" width="28.3" height="14.5"/>
		<rect x="9.9" y="22" class="st3" width="28.3" height="14.2"/>
		<rect x="14.9" y="21.1" class="st4" width="18.4" height="1.7"/>
	</g>
	<g>
		<g>
			<path class="st1" d="M54.4,25.8C53.2,25.3,52,25,50.9,25c-1.6,0-2.4,0.3-2.4,1c0,1.8,7.2,0.3,7.2,4.1c0,1.6-1.5,2.8-4.4,2.8
				c-1.8,0-3.1-0.4-4.7-1.2l0.6-1.4c1.4,0.8,2.7,1.1,4.1,1.1c1.8,0,2.7-0.5,2.7-1.3c0-1.9-7.2-0.5-7.2-4c0-1.5,1.5-2.6,4.1-2.6
				c1.6,0,2.9,0.3,4.2,1L54.4,25.8z"/>
			<path class="st1" d="M61.9,29.4h-2.7v3.3h-1.7v-9h5.8c1.9,0,3.1,1.2,3.1,2.9c0,1.6-1.2,2.6-2.6,2.8l2.7,3.4h-2.1L61.9,29.4z
				 M63.2,27.9c1,0,1.6-0.5,1.6-1.3c0-0.9-0.5-1.4-1.5-1.4h-4.1v2.7H63.2z"/>
			<path class="st1" d="M76.2,28c0.8,0.4,1.2,1.2,1.2,2c0,1.5-1.1,2.6-3.1,2.6h-6v-9h5.9c1.7,0,2.9,1,2.9,2.5
				C77.2,27,76.8,27.6,76.2,28z M74.4,27.4c0.8,0,1.1-0.5,1.1-1.1c0-0.6-0.4-1.1-1.2-1.1H70v2.2H74.4z M75.7,30
				c0-0.8-0.4-1.2-1.2-1.2H70v2.3h4.3C75.3,31.2,75.7,30.8,75.7,30z"/>
			<path class="st1" d="M79.6,32.7v-9h1.7v9H79.6z"/>
			<path class="st1" d="M83,30.7c0.7,0.4,1.5,0.7,2.3,0.7c1.2,0,1.7-0.5,1.7-1.5v-6.2h1.7v6.4c0,1.6-1.1,2.8-3.3,2.8
				c-1.1,0-2.1-0.3-2.8-0.8L83,30.7z"/>
			<path class="st1" d="M92.7,30.5l-1,2.2h-1.8l4.4-9H96l4.4,9h-1.8l-1-2.2H92.7z M93.4,29h3.5l-1.7-3.6L93.4,29z"/>
		</g>
		<g>
			<g>
				<path class="st1" d="M54.4,13.3c-1.2-0.5-2.4-0.8-3.5-0.8c-1.6,0-2.4,0.3-2.4,1c0,1.8,7.2,0.3,7.2,4.1c0,1.6-1.5,2.8-4.4,2.8
					c-1.8,0-3.1-0.4-4.7-1.2l0.6-1.4c1.4,0.8,2.7,1.1,4.1,1.1c1.8,0,2.7-0.5,2.7-1.3c0-1.9-7.2-0.5-7.2-4c0-1.5,1.5-2.6,4.1-2.6
					c1.6,0,2.9,0.3,4.2,1L54.4,13.3z"/>
				<path class="st1" d="M62.4,20.4c-2.9,0-5.2-1.9-5.2-4.8c0-2.8,2.4-4.8,5.2-4.8c2.9,0,5.2,1.9,5.2,4.8
					C67.6,18.5,65.3,20.4,62.4,20.4z M62.4,12.4c-2.1,0-3.5,1.4-3.5,3.2c0,1.9,1.4,3.2,3.5,3.2c2.1,0,3.5-1.4,3.5-3.2
					C65.9,13.8,64.5,12.4,62.4,12.4z"/>
				<path class="st1" d="M74.5,20.4c-3,0-5.3-1.9-5.3-4.8c0-2.8,2.3-4.8,5.3-4.8c1.8,0,3,0.5,4.2,1.3l-0.9,1.3
					c-0.8-0.6-1.9-1.1-3.3-1.1c-2.2,0-3.6,1.4-3.6,3.2c0,1.9,1.4,3.2,3.6,3.2c1.4,0,2.5-0.4,3.3-1.1l0.9,1.3
					C77.7,19.9,76.3,20.4,74.5,20.4z"/>
				<path class="st1" d="M80.7,20.2v-9h1.7v9H80.7z"/>
				<path class="st1" d="M84.8,20.2v-9H93v1.5h-6.5v2.2h5.1v1.5h-5.1v2.4h6.8v1.5H84.8z"/>
				<path class="st1" d="M99.4,12.6v7.5h-1.7v-7.5h-3.7v-1.5h9v1.5H99.4z"/>
				<path class="st1" d="M104.5,20.2v-9h8.2v1.5h-6.5v2.2h5.1v1.5h-5.1v2.4h6.8v1.5H104.5z"/>
				<path class="st1" d="M123.4,18.8c0.9,0,1.9-0.2,2.6-0.5v-2.6h1.6v3.5c-1.1,0.8-2.7,1.2-4.3,1.2c-3,0-5.3-1.9-5.3-4.8
					c0-2.8,2.3-4.8,5.3-4.8c1.7,0,3,0.5,4.2,1.3l-0.9,1.3c-0.8-0.6-1.9-1.1-3.3-1.1c-2.2,0-3.6,1.4-3.6,3.2
					C119.8,17.5,121.2,18.8,123.4,18.8z"/>
				<path class="st1" d="M129.9,20.2v-9h8.2v1.5h-6.5v2.2h5.1v1.5h-5.1v2.4h6.8v1.5H129.9z"/>
				<path class="st1" d="M141.9,20.2h-1.6v-9h1.7l5.9,6.8l0,0c-0.1-1.7-0.1-3.1-0.1-4.4v-2.4h1.6v9h-1.7l-5.8-6.8l0,0
					c0.1,1.3,0.1,3.7,0.1,4.4V20.2z"/>
				<path class="st1" d="M151.9,20.2v-9h8.2v1.5h-6.5v2.2h5.1v1.5h-5.1v2.4h6.8v1.5H151.9z"/>
				<path class="st1" d="M166.6,16.9h-2.7v3.3h-1.7v-9h5.8c1.9,0,3.1,1.2,3.1,2.9c0,1.6-1.2,2.6-2.6,2.8l2.7,3.4h-2.1L166.6,16.9z
					 M167.8,15.4c1,0,1.6-0.5,1.6-1.3c0-0.9-0.5-1.4-1.5-1.4h-4.1v2.7H167.8z"/>
				<path class="st1" d="M174.7,18l-1,2.2h-1.8l4.4-9h1.8l4.4,9h-1.8l-1-2.2H174.7z M175.4,16.5h3.5l-1.7-3.6L175.4,16.5z"/>
				<path class="st1" d="M183.6,20.2v-9h1.7v7.5h6v1.5H183.6z"/>
				<path class="st1" d="M192.5,20.2v-9h8.2v1.5h-6.5v2.2h5.1v1.5h-5.1v2.4h6.8v1.5H192.5z"/>
			</g>
		</g>
	</g>
</g>
</svg>
