<svg id="Layer_1" data-name="Layer 1" xmlns="http://www.w3.org/2000/svg" viewBox="0 0 191.8 29.8"><defs><style>.cls-1{fill:#fc0019;}.cls-2{fill:#fff;}.cls-3{fill:#231f20;}</style></defs><title>SOCSRBIJA BELI-01</title><rect class="cls-1" width="28.3" height="14.5"/><rect class="cls-2" width="29.8" height="29.8"/><rect class="cls-1" x="0.7" y="0.7" width="28.3" height="14.5"/><rect class="cls-3" x="0.7" y="14.9" width="28.3" height="14.2"/><rect class="cls-2" x="5.7" y="14" width="18.4" height="1.7"/><path class="cls-2" d="M54.4,25.8a9.31,9.31,0,0,0-3.5-.8c-1.6,0-2.4.3-2.4,1,0,1.8,7.2.3,7.2,4.1,0,1.6-1.5,2.8-4.4,2.8a9.67,9.67,0,0,1-4.7-1.2l0.6-1.4a7.91,7.91,0,0,0,4.1,1.1c1.8,0,2.7-.5,2.7-1.3,0-1.9-7.2-.5-7.2-4,0-1.5,1.5-2.6,4.1-2.6a8.42,8.42,0,0,1,4.2,1Z" transform="translate(-9.2 -7.1)"/><path class="cls-2" d="M61.9,29.4H59.2v3.3H57.5v-9h5.8a2.86,2.86,0,0,1,.5,5.7l2.7,3.4H64.4Zm1.3-1.5a1.36,1.36,0,0,0,1.6-1.3,1.3,1.3,0,0,0-1.5-1.4H59.2v2.7h4Z" transform="translate(-9.2 -7.1)"/><path class="cls-2" d="M76.2,28a2.2,2.2,0,0,1,1.2,2c0,1.5-1.1,2.6-3.1,2.6h-6v-9h5.9c1.7,0,2.9,1,2.9,2.5A1.89,1.89,0,0,1,76.2,28Zm-1.8-.6a1,1,0,0,0,1.1-1.1,1.08,1.08,0,0,0-1.2-1.1H70v2.2h4.4ZM75.7,30a1.06,1.06,0,0,0-1.2-1.2H70v2.3h4.3C75.3,31.2,75.7,30.8,75.7,30Z" transform="translate(-9.2 -7.1)"/><path class="cls-2" d="M79.6,32.7v-9h1.7v9H79.6Z" transform="translate(-9.2 -7.1)"/><path class="cls-2" d="M83,30.7a4.76,4.76,0,0,0,2.3.7c1.2,0,1.7-.5,1.7-1.5V23.7h1.7v6.4c0,1.6-1.1,2.8-3.3,2.8a4.88,4.88,0,0,1-2.8-.8Z" transform="translate(-9.2 -7.1)"/><path class="cls-2" d="M92.7,30.5l-1,2.2H89.9l4.4-9H96l4.4,9H98.6l-1-2.2H92.7ZM93.4,29h3.5l-1.7-3.6Z" transform="translate(-9.2 -7.1)"/><path class="cls-2" d="M54.4,13.3a9.31,9.31,0,0,0-3.5-.8c-1.6,0-2.4.3-2.4,1,0,1.8,7.2.3,7.2,4.1,0,1.6-1.5,2.8-4.4,2.8a9.67,9.67,0,0,1-4.7-1.2l0.6-1.4a7.91,7.91,0,0,0,4.1,1.1c1.8,0,2.7-.5,2.7-1.3,0-1.9-7.2-.5-7.2-4,0-1.5,1.5-2.6,4.1-2.6a8.42,8.42,0,0,1,4.2,1Z" transform="translate(-9.2 -7.1)"/><path class="cls-2" d="M62.4,20.4c-2.9,0-5.2-1.9-5.2-4.8a5,5,0,0,1,5.2-4.8c2.9,0,5.2,1.9,5.2,4.8S65.3,20.4,62.4,20.4Zm0-8a3.24,3.24,0,0,0-3.5,3.2,3.18,3.18,0,0,0,3.5,3.2A3.21,3.21,0,1,0,62.4,12.4Z" transform="translate(-9.2 -7.1)"/><path class="cls-2" d="M74.5,20.4c-3,0-5.3-1.9-5.3-4.8s2.3-4.8,5.3-4.8a7,7,0,0,1,4.2,1.3l-0.9,1.3a5.42,5.42,0,0,0-3.3-1.1c-2.2,0-3.6,1.4-3.6,3.2s1.4,3.2,3.6,3.2a4.86,4.86,0,0,0,3.3-1.1l0.9,1.3A5.68,5.68,0,0,1,74.5,20.4Z" transform="translate(-9.2 -7.1)"/><path class="cls-2" d="M80.7,20.2v-9h1.7v9H80.7Z" transform="translate(-9.2 -7.1)"/><path class="cls-2" d="M84.8,20.2v-9H93v1.5H86.5v2.2h5.1v1.5H86.5v2.4h6.8v1.5H84.8V20.2Z" transform="translate(-9.2 -7.1)"/><path class="cls-2" d="M99.4,12.6v7.5H97.7V12.6H94V11.1h9v1.5H99.4Z" transform="translate(-9.2 -7.1)"/><path class="cls-2" d="M104.5,20.2v-9h8.2v1.5h-6.5v2.2h5.1v1.5h-5.1v2.4H113v1.5h-8.5V20.2Z" transform="translate(-9.2 -7.1)"/><path class="cls-2" d="M123.4,18.8a7.08,7.08,0,0,0,2.6-.5V15.7h1.6v3.5a7.5,7.5,0,0,1-4.3,1.2c-3,0-5.3-1.9-5.3-4.8s2.3-4.8,5.3-4.8a7.22,7.22,0,0,1,4.2,1.3l-0.9,1.3a5.42,5.42,0,0,0-3.3-1.1c-2.2,0-3.6,1.4-3.6,3.2A3.37,3.37,0,0,0,123.4,18.8Z" transform="translate(-9.2 -7.1)"/><path class="cls-2" d="M129.9,20.2v-9h8.2v1.5h-6.5v2.2h5.1v1.5h-5.1v2.4h6.8v1.5h-8.5V20.2Z" transform="translate(-9.2 -7.1)"/><path class="cls-2" d="M141.9,20.2h-1.6v-9H142l5.9,6.8h0c-0.1-1.7-.1-3.1-0.1-4.4V11.2h1.6v9h-1.7l-5.8-6.8h0c0.1,1.3.1,3.7,0.1,4.4v2.4h-0.1Z" transform="translate(-9.2 -7.1)"/><path class="cls-2" d="M151.9,20.2v-9h8.2v1.5h-6.5v2.2h5.1v1.5h-5.1v2.4h6.8v1.5h-8.5V20.2Z" transform="translate(-9.2 -7.1)"/><path class="cls-2" d="M166.6,16.9h-2.7v3.3h-1.7v-9H168a2.86,2.86,0,0,1,.5,5.7l2.7,3.4h-2.1Zm1.2-1.5a1.36,1.36,0,0,0,1.6-1.3,1.3,1.3,0,0,0-1.5-1.4h-4.1v2.7h4Z" transform="translate(-9.2 -7.1)"/><path class="cls-2" d="M174.7,18l-1,2.2h-1.8l4.4-9h1.8l4.4,9h-1.8l-1-2.2h-5Zm0.7-1.5h3.5l-1.7-3.6Z" transform="translate(-9.2 -7.1)"/><path class="cls-2" d="M183.6,20.2v-9h1.7v7.5h6v1.5h-7.7Z" transform="translate(-9.2 -7.1)"/><path class="cls-2" d="M192.5,20.2v-9h8.2v1.5h-6.5v2.2h5.1v1.5h-5.1v2.4H201v1.5h-8.5V20.2Z" transform="translate(-9.2 -7.1)"/></svg>