<?xml version="1.0" encoding="utf-8"?>
<!-- Generator: Adobe Illustrator 19.2.0, SVG Export Plug-In . SVG Version: 6.00 Build 0)  -->
<svg version="1.1" id="Layer_1" xmlns="http://www.w3.org/2000/svg" xmlns:xlink="http://www.w3.org/1999/xlink" x="0px" y="0px"
	 viewBox="0 0 211 44" style="enable-background:new 0 0 211 44;" xml:space="preserve">
<style type="text/css">
	.st0{fill:#FC0019;}
	.st1{fill:#FFFFFF;}
</style>
<rect x="9.2" y="7.1" class="st0" width="28.3" height="14.5"/>
<rect x="9.2" y="21.3" width="28.3" height="14.2"/>
<rect x="14.1" y="20.4" class="st1" width="18.4" height="1.7"/>
<path d="M53.7,25.1c-1.2-0.5-2.4-0.8-3.5-0.8c-1.6,0-2.4,0.3-2.4,1c0,1.8,7.2,0.3,7.2,4.1c0,1.6-1.5,2.8-4.4,2.8
	c-1.8,0-3.1-0.4-4.7-1.2l0.6-1.4c1.4,0.8,2.7,1.1,4.1,1.1c1.8,0,2.7-0.5,2.7-1.3c0-1.9-7.2-0.5-7.2-4c0-1.5,1.5-2.6,4.1-2.6
	c1.6,0,2.9,0.3,4.2,1L53.7,25.1"/>
<path d="M61.2,28.7h-2.7V32h-1.7v-9h5.8c1.9,0,3.1,1.2,3.1,2.9c0,1.6-1.2,2.6-2.6,2.8l2.7,3.4h-2.1L61.2,28.7 M62.5,27.2
	c1,0,1.6-0.5,1.6-1.3c0-0.9-0.5-1.4-1.5-1.4h-4.1v2.7H62.5z"/>
<path d="M75.5,27.3c0.8,0.4,1.2,1.2,1.2,2c0,1.5-1.1,2.6-3.1,2.6h-6v-9h5.9c1.7,0,2.9,1,2.9,2.5C76.4,26.3,76.1,26.9,75.5,27.3
	 M73.7,26.7c0.8,0,1.1-0.5,1.1-1.1c0-0.6-0.4-1.1-1.2-1.1h-4.3v2.2H73.7z M75,29.3c0-0.8-0.4-1.2-1.2-1.2h-4.5v2.3h4.3
	C74.6,30.5,75,30.1,75,29.3z"/>
<rect x="78.9" y="23" width="1.7" height="9"/>
<path d="M82.3,30c0.7,0.4,1.5,0.7,2.3,0.7c1.2,0,1.7-0.5,1.7-1.5V23H88v6.4c0,1.6-1.1,2.8-3.3,2.8c-1.1,0-2.1-0.3-2.8-0.8L82.3,30"
	/>
<path d="M92,29.8l-1,2.2h-1.8l4.4-9h1.8l4.4,9h-1.8l-1-2.2H92 M92.7,28.3h3.5l-1.7-3.6L92.7,28.3z"/>
<path d="M53.7,12.6c-1.2-0.5-2.4-0.8-3.5-0.8c-1.6,0-2.4,0.3-2.4,1c0,1.8,7.2,0.3,7.2,4.1c0,1.6-1.5,2.8-4.4,2.8
	c-1.8,0-3.1-0.4-4.7-1.2l0.6-1.4c1.4,0.8,2.7,1.1,4.1,1.1c1.8,0,2.7-0.5,2.7-1.3c0-1.9-7.2-0.5-7.2-4c0-1.5,1.5-2.6,4.1-2.6
	c1.6,0,2.9,0.3,4.2,1L53.7,12.6"/>
<path d="M61.7,19.7c-2.9,0-5.2-1.9-5.2-4.8c0-2.8,2.4-4.8,5.2-4.8c2.9,0,5.2,1.9,5.2,4.8C66.9,17.8,64.6,19.7,61.7,19.7 M61.7,11.7
	c-2.1,0-3.5,1.4-3.5,3.2c0,1.9,1.4,3.2,3.5,3.2c2.1,0,3.5-1.4,3.5-3.2C65.2,13.1,63.8,11.7,61.7,11.7z"/>
<path d="M73.8,19.7c-3,0-5.3-1.9-5.3-4.8c0-2.8,2.3-4.8,5.3-4.8c1.8,0,3,0.5,4.2,1.3l-0.9,1.3c-0.8-0.6-1.9-1.1-3.3-1.1
	c-2.2,0-3.6,1.4-3.6,3.2c0,1.9,1.4,3.2,3.6,3.2c1.4,0,2.5-0.4,3.3-1.1l0.9,1.3C76.9,19.2,75.6,19.7,73.8,19.7"/>
<rect x="79.9" y="10.5" width="1.7" height="9"/>
<polyline points="84.1,19.5 84.1,10.5 92.3,10.5 92.3,11.9 85.7,11.9 85.7,14.1 90.8,14.1 90.8,15.6 85.7,15.6 85.7,18 92.6,18 
	92.6,19.5 84.1,19.5 "/>
<polyline points="98.7,11.9 98.7,19.5 97.1,19.5 97.1,11.9 93.4,11.9 93.4,10.5 102.4,10.5 102.4,11.9 98.7,11.9 "/>
<polyline points="103.8,19.5 103.8,10.5 112,10.5 112,11.9 105.5,11.9 105.5,14.1 110.6,14.1 110.6,15.6 105.5,15.6 105.5,18 
	112.3,18 112.3,19.5 103.8,19.5 "/>
<path d="M122.7,18.1c0.9,0,1.9-0.2,2.6-0.5V15h1.6v3.5c-1.1,0.8-2.7,1.2-4.3,1.2c-3,0-5.3-1.9-5.3-4.8c0-2.8,2.3-4.8,5.3-4.8
	c1.7,0,3,0.5,4.2,1.3l-0.9,1.3c-0.8-0.6-1.9-1.1-3.3-1.1c-2.2,0-3.6,1.4-3.6,3.2C119.1,16.8,120.5,18.1,122.7,18.1"/>
<polyline points="129.2,19.5 129.2,10.5 137.4,10.5 137.4,11.9 130.9,11.9 130.9,14.1 136,14.1 136,15.6 130.9,15.6 130.9,18 
	137.7,18 137.7,19.5 129.2,19.5 "/>
<path d="M141.2,19.5h-1.6v-9h1.7l5.9,6.8l0,0c-0.1-1.7-0.1-3.1-0.1-4.4v-2.4h1.6v9H147l-5.8-6.8l0,0c0.1,1.3,0.1,3.7,0.1,4.4V19.5"
	/>
<polyline points="151.2,19.5 151.2,10.5 159.4,10.5 159.4,11.9 152.9,11.9 152.9,14.1 157.9,14.1 157.9,15.6 152.9,15.6 152.9,18 
	159.7,18 159.7,19.5 151.2,19.5 "/>
<path d="M165.9,16.1h-2.7v3.3h-1.7v-9h5.8c1.9,0,3.1,1.2,3.1,2.9c0,1.6-1.2,2.6-2.6,2.8l2.7,3.4h-2.1L165.9,16.1 M167.1,14.6
	c1,0,1.6-0.5,1.6-1.3c0-0.9-0.5-1.4-1.5-1.4h-4.1v2.7H167.1z"/>
<path d="M174,17.3l-1,2.2h-1.8l4.4-9h1.8l4.4,9h-1.8l-1-2.2H174 M174.7,15.8h3.5l-1.7-3.6L174.7,15.8z"/>
<polyline points="182.9,19.5 182.9,10.5 184.6,10.5 184.6,18 190.6,18 190.6,19.5 182.9,19.5 "/>
<polyline points="191.8,19.5 191.8,10.5 200,10.5 200,11.9 193.5,11.9 193.5,14.1 198.5,14.1 198.5,15.6 193.5,15.6 193.5,18 
	200.3,18 200.3,19.5 191.8,19.5 "/>
</svg>
