<svg id="Grid" xmlns="http://www.w3.org/2000/svg" xmlns:xlink="http://www.w3.org/1999/xlink" viewBox="0 0 100.63 29.82"><defs><style>.cls-1{fill:none;}.cls-2{fill:#a8a8a8;}.cls-3{fill:#e1e1e1;}.cls-4{fill:#fff;}.cls-5{clip-path:url(#clip-path);}.cls-6{fill:url(#linear-gradient);}.cls-7{fill:url(#linear-gradient-2);}.cls-8{fill:url(#linear-gradient-3);}.cls-9{fill:url(#linear-gradient-4);}</style><clipPath id="clip-path" transform="translate(-679.36 -2064.43)"><path class="cls-1" d="M701.68,2075.79l-4.19-2.32-8.08-4.48c-0.45-.25-0.9-0.1-0.9.42v18.23c0,0.39.32,0.56,0.71,0.34l8.27-4.58,4.19-2.32,4-2.23c0.47-.26.43-0.62,0-0.83S701.68,2075.79,701.68,2075.79Z"/></clipPath><linearGradient id="linear-gradient" x1="14.35" y1="4.14" x2="14.35" y2="23.88" gradientUnits="userSpaceOnUse"><stop offset="0" stop-color="#207cb0"/><stop offset="0.38" stop-color="#3cb2bf"/><stop offset="0.8" stop-color="#58e9ce"/><stop offset="1" stop-color="#63ffd4"/></linearGradient><linearGradient id="linear-gradient-2" x1="9.16" y1="9.04" x2="22.32" y2="9.04" gradientUnits="userSpaceOnUse"><stop offset="0" stop-color="#4bc3ae"/><stop offset="1" stop-color="#dee999"/></linearGradient><linearGradient id="linear-gradient-3" x1="15.74" y1="14.01" x2="15.74" y2="23.96" gradientUnits="userSpaceOnUse"><stop offset="0" stop-color="#ec403d"/><stop offset="0.38" stop-color="#c93b75"/><stop offset="0.8" stop-color="#a636ac"/><stop offset="1" stop-color="#9934c2"/></linearGradient><linearGradient id="linear-gradient-4" x1="23.32" y1="11.36" x2="23.32" y2="16.66" gradientUnits="userSpaceOnUse"><stop offset="0" stop-color="#f87"/><stop offset="0.61" stop-color="#ffb175"/><stop offset="1" stop-color="#ffc774"/></linearGradient></defs><title>Play</title><rect class="cls-2" width="100.63" height="29.82" rx="2.68" ry="2.68"/><path class="cls-3" d="M715.24,2069.46a2,2,0,0,1,1.45.62l-0.48.54a1.27,1.27,0,0,0-1-.4,1.52,1.52,0,0,0-1.45,1.77,1.5,1.5,0,0,0,1.5,1.78,1.07,1.07,0,0,0,.69-0.22v-1.05h-0.92v-0.71h1.69v2.15a2.36,2.36,0,0,1-1.57.58,2.25,2.25,0,0,1-2.28-2.51A2.31,2.31,0,0,1,715.24,2069.46Z" transform="translate(-679.36 -2064.43)"/><path class="cls-3" d="M719.2,2070.67a1.51,1.51,0,0,1,1.51,1.74,1.87,1.87,0,0,1,0,.4h-2.33a1.05,1.05,0,0,0,1.08,1,1.53,1.53,0,0,0,.85-0.27l0.29,0.54a2.31,2.31,0,0,1-1.25.39A1.93,1.93,0,0,1,719.2,2070.67Zm0.77,1.59a0.77,0.77,0,0,0-.74-0.93,0.92,0.92,0,0,0-.88.93H720Z" transform="translate(-679.36 -2064.43)"/><path class="cls-3" d="M721.55,2071.44H721v-0.64l0.57,0,0.1-1h0.72v1h0.93v0.68h-0.93v1.74a0.51,0.51,0,0,0,.51.64,1.07,1.07,0,0,0,.38-0.08l0.15,0.63a2.33,2.33,0,0,1-.75.13,1.11,1.11,0,0,1-1.16-1.33v-1.74Z" transform="translate(-679.36 -2064.43)"/><path class="cls-3" d="M725.55,2069.63a0.53,0.53,0,1,1,.53.48A0.49,0.49,0,0,1,725.55,2069.63Zm0.1,1.13h0.86v3.66h-0.86v-3.66Z" transform="translate(-679.36 -2064.43)"/><path class="cls-3" d="M727.73,2071.44h-0.52v-0.64l0.57,0,0.1-1h0.72v1h0.93v0.68h-0.93v1.74a0.51,0.51,0,0,0,.51.64,1.07,1.07,0,0,0,.38-0.08l0.15,0.63a2.33,2.33,0,0,1-.75.13,1.11,1.11,0,0,1-1.16-1.33v-1.74Z" transform="translate(-679.36 -2064.43)"/><path class="cls-3" d="M733.32,2070.67a1.93,1.93,0,1,1-1.74,1.92A1.77,1.77,0,0,1,733.32,2070.67Zm0,3.14a1.29,1.29,0,1,0-.86-1.21A1,1,0,0,0,733.32,2073.81Z" transform="translate(-679.36 -2064.43)"/><path class="cls-3" d="M735.92,2070.76h0.71l0.06,0.49h0a1.7,1.7,0,0,1,1.2-.58c0.78,0,1.13.53,1.13,1.45v2.3h-0.86v-2.18c0-.6-0.17-0.83-0.57-0.83a1.16,1.16,0,0,0-.84.45v2.56h-0.86v-3.66Z" transform="translate(-679.36 -2064.43)"/><path class="cls-4" d="M755.8,2087.28a2.57,2.57,0,0,1-1.06-.21,2,2,0,0,1-.81-0.66h-0.07a8,8,0,0,1,.07,1v2.45H753v-8.64h0.74l0.12,0.82h0a2.1,2.1,0,0,1,.81-0.71,2.47,2.47,0,0,1,1.06-.22,2.21,2.21,0,0,1,1.83.81,4.33,4.33,0,0,1,0,4.56A2.22,2.22,0,0,1,755.8,2087.28Zm-0.13-5.41a1.6,1.6,0,0,0-1.32.51,2.6,2.6,0,0,0-.42,1.61v0.2a3,3,0,0,0,.42,1.8,1.59,1.59,0,0,0,1.34.54,1.4,1.4,0,0,0,1.21-.63,3,3,0,0,0,.44-1.72,2.86,2.86,0,0,0-.44-1.71A1.44,1.44,0,0,0,755.67,2081.87Z" transform="translate(-679.36 -2064.43)"/><path class="cls-4" d="M760.37,2087.17h-0.9v-8.47h0.9v8.47Z" transform="translate(-679.36 -2064.43)"/><path class="cls-4" d="M765.56,2087.17l-0.18-.85h0a2.48,2.48,0,0,1-.89.76,2.71,2.71,0,0,1-1.11.2,2,2,0,0,1-1.39-.46,1.67,1.67,0,0,1-.5-1.3q0-1.8,2.89-1.89l1,0v-0.37a1.51,1.51,0,0,0-.3-1,1.24,1.24,0,0,0-1-.34,3.93,3.93,0,0,0-1.69.46l-0.28-.69a4.34,4.34,0,0,1,1-.38,4.22,4.22,0,0,1,1.05-.14,2.27,2.27,0,0,1,1.58.47,2,2,0,0,1,.51,1.52v4.07h-0.67Zm-2-.64a1.84,1.84,0,0,0,1.32-.46,1.72,1.72,0,0,0,.48-1.3v-0.54l-0.9,0a3.28,3.28,0,0,0-1.55.33,1,1,0,0,0-.48.92,0.93,0.93,0,0,0,.3.74A1.22,1.22,0,0,0,763.52,2086.54Z" transform="translate(-679.36 -2064.43)"/><path class="cls-4" d="M766.76,2081.21h1l1.31,3.4a13.13,13.13,0,0,1,.53,1.68h0c0-.19.15-0.5,0.3-0.95s0.64-1.83,1.48-4.13h1l-2.56,6.79a3.38,3.38,0,0,1-.89,1.43,1.89,1.89,0,0,1-1.25.42,3.7,3.7,0,0,1-.82-0.09V2089a3.06,3.06,0,0,0,.67.07,1.38,1.38,0,0,0,1.33-1l0.33-.85Z" transform="translate(-679.36 -2064.43)"/><path class="cls-4" d="M739.07,2081.77a2,2,0,0,1-.16,3.46,0.87,0.87,0,0,0-.35.61,0.68,0.68,0,0,0,.33.54l0.45,0.35a2.17,2.17,0,0,1,1,1.75c0,1.17-1.14,2.36-3.28,2.36-1.81,0-2.68-.86-2.68-1.78a1.79,1.79,0,0,1,1-1.52,5.37,5.37,0,0,1,2.38-.57,1.3,1.3,0,0,1-.37-0.85,1.13,1.13,0,0,1,.12-0.49l-0.4,0a2,2,0,0,1-2.07-2,2.24,2.24,0,0,1,.8-1.67,3.4,3.4,0,0,1,2.23-.69h2.57l-0.8.45h-0.77Zm-0.89,5.54H737.9a4.92,4.92,0,0,0-1.31.2,1.4,1.4,0,0,0-1.07,1.28c0,0.88.86,1.52,2.19,1.52s1.83-.57,1.83-1.35S739.14,2088,738.19,2087.3Zm0.36-2.37a1.26,1.26,0,0,0,.31-0.91c0-.9-0.54-2.3-1.57-2.3a1.17,1.17,0,0,0-.87.41,1.45,1.45,0,0,0-.27.92c0,0.83.49,2.22,1.56,2.22A1.27,1.27,0,0,0,738.55,2084.93Z" transform="translate(-679.36 -2064.43)"/><path class="cls-4" d="M731.22,2087.1a2.94,2.94,0,0,1-3-2.94,3.08,3.08,0,0,1,3.22-3,2.91,2.91,0,0,1,3,2.94A3,3,0,0,1,731.22,2087.1Zm1.56-1a2.25,2.25,0,0,0,.37-1.38c0-1.1-.52-3.19-2.07-3.19a1.73,1.73,0,0,0-1.12.42,1.88,1.88,0,0,0-.57,1.52c0,1.23.61,3.26,2.12,3.26A1.59,1.59,0,0,0,732.78,2086.09Z" transform="translate(-679.36 -2064.43)"/><path class="cls-4" d="M724.47,2087.1a2.94,2.94,0,0,1-3-2.94,3.08,3.08,0,0,1,3.23-3,2.91,2.91,0,0,1,3,2.94A3,3,0,0,1,724.47,2087.1Zm1.56-1a2.26,2.26,0,0,0,.37-1.38c0-1.1-.52-3.19-2.07-3.19a1.73,1.73,0,0,0-1.12.42,1.88,1.88,0,0,0-.57,1.52c0,1.23.61,3.26,2.12,3.26A1.6,1.6,0,0,0,726,2086.09Z" transform="translate(-679.36 -2064.43)"/><path class="cls-4" d="M720.48,2086.91l-1.79.41a13.21,13.21,0,0,1-2.07.21,4.45,4.45,0,0,1-4.77-4.53,4.73,4.73,0,0,1,5.06-4.68,7.25,7.25,0,0,1,1.91.26,4.9,4.9,0,0,1,1.65.78l-1,1-0.44.1,0.31-.5a3.58,3.58,0,0,0-2.68-1.18,3.46,3.46,0,0,0-3.47,3.69,4.43,4.43,0,0,0,4.43,4.57,3.73,3.73,0,0,0,1.59-.31v-2l-1.89.1,1-.54H721l-0.33.31a0.29,0.29,0,0,0-.13.2c0,0.11,0,.48,0,0.6v1.53Z" transform="translate(-679.36 -2064.43)"/><path class="cls-4" d="M743,2086.55c-0.41,0-.5-0.11-0.5-0.6v-7.09s0-.05,0-0.08a0.8,0.8,0,0,1,.57-0.74h-1.79l-0.94.45h1v7.73a0.91,0.91,0,0,1-.34.66h2.22l0.46-.27Z" transform="translate(-679.36 -2064.43)"/><path class="cls-4" d="M748.13,2086.66c-0.14.07-.27,0.16-0.41,0.22a2.88,2.88,0,0,1-1.21.24,2.66,2.66,0,0,1-1.65-.48,3.21,3.21,0,0,1-1.27-2.62,2.82,2.82,0,0,1,2.85-2.87,2.42,2.42,0,0,1,1.28.35,2.06,2.06,0,0,1,.87,1.23l-2.92,1.18-1,.08a2.76,2.76,0,0,0,2.56,2.5,3.21,3.21,0,0,0,1.52-.44ZM747,2083a0.39,0.39,0,0,0,.36-0.34,1.23,1.23,0,0,0-1.23-1.07,1.53,1.53,0,0,0-1.43,1.73c0,0.21,0,.43,0,0.66Z" transform="translate(-679.36 -2064.43)"/><path class="cls-4" d="M749.33,2081.23V2082h-0.1v-0.82H749v-0.09h0.64v0.09h-0.27Z" transform="translate(-679.36 -2064.43)"/><path class="cls-4" d="M750.44,2082v-0.83h0l-0.25.83h-0.08l-0.25-.83h0V2082h-0.09v-0.91h0.16l0.23,0.73h0l0.23-.73h0.16V2082h-0.09Z" transform="translate(-679.36 -2064.43)"/><g id="PLAY"><g class="cls-5"><polygon class="cls-6" points="9.16 4.14 9.16 14.01 9.16 23.88 19.54 14.01 9.16 4.14"/><polygon class="cls-7" points="22.32 11.36 18.14 9.04 9.16 4.07 9.16 4.14 19.54 14.01 22.32 11.36"/><polygon class="cls-8" points="9.16 23.88 9.16 23.95 18.14 18.98 22.32 16.66 19.54 14.01 9.16 23.88"/><polygon class="cls-9" points="22.32 11.36 19.54 14.01 22.32 16.66 27.11 14.01 22.32 11.36"/></g></g></svg>