<svg id="Grid" xmlns="http://www.w3.org/2000/svg" viewBox="0 0 100.63 29.82"><defs><style>.cls-1{fill:#a8a8a8;}.cls-2,.cls-3{fill:#fff;}.cls-3{stroke:#fff;stroke-miterlimit:10;stroke-width:0.25px;}</style></defs><title>win</title><rect class="cls-1" width="100.63" height="29.82" rx="2.68" ry="2.68"/><g id="bag"><g id="handles"><path class="cls-2" d="M924.79,2070c-0.91.32-1.58,0.6-1.58,2.34v0.84l0.55-.11v-0.72a1.48,1.48,0,0,1,1.09-1.78A2.85,2.85,0,0,0,924.79,2070Z" transform="translate(-898.09 -2064.43)"/><path class="cls-2" d="M926.38,2069.59a5,5,0,0,1,.08.55c1.43-.21,1.4.38,1.4,1.62v0.45l0.54-.11v-0.34C928.41,2069.85,928.11,2069.33,926.38,2069.59Z" transform="translate(-898.09 -2064.43)"/><path class="cls-2" d="M920.75,2073.64v-2.51c0-1.56.79-2,2.27-2.38,2.24-.52,2.38.92,2.38,1.84v2.13l0.55-.11v-2c0-1.74-.55-3-3-2.47-1.34.3-2.71,0.65-2.71,2.92v2.68Z" transform="translate(-898.09 -2064.43)"/></g><path class="cls-2" d="M931.15,2072.22l-15.05,3v10.95l15.05,3,3-1.09v-14.78Zm-8.48,11.69-3.34-.47v-2.77h3.34v3.24Zm0-3.66h-3.34v-2.55l3.34-.47v3Zm4.63,4.31-4.21-.62v-3.27h4.21v3.89Zm0-4.31h-4.21v-3l4.21-.62v3.66Z" transform="translate(-898.09 -2064.43)"/></g><path class="cls-3" d="M946.15,2078.19h-0.46l-1.77-6a3.5,3.5,0,0,1-.15-0.75h0a3.75,3.75,0,0,1-.17.74l-1.89,6h-0.46l-2.37-8h0.62l1.82,6.39q0.11,0.38.17,0.71h0a1,1,0,0,1,0-.13l2.14-7h0.28l1.81,6.39q0.13,0.49.17,0.71h0l0-.17,1.92-6.93h0.6Z" transform="translate(-898.09 -2064.43)"/><path class="cls-3" d="M949.81,2071.06a0.43,0.43,0,0,1-.42-0.43,0.38,0.38,0,0,1,.13-0.3,0.43,0.43,0,0,1,.29-0.11,0.45,0.45,0,0,1,.3.11,0.38,0.38,0,0,1,.13.3A0.44,0.44,0,0,1,949.81,2071.06Zm-0.25,7.13v-5.7h0.51v5.7h-0.51Z" transform="translate(-898.09 -2064.43)"/><path class="cls-3" d="M955.66,2078.19v-3.32q0-2.05-1.48-2.05a1.72,1.72,0,0,0-1.35.6,2.17,2.17,0,0,0-.53,1.5v3.27h-0.51v-5.7h0.51v1h0a2.06,2.06,0,0,1,1.95-1.17,1.7,1.7,0,0,1,1.42.61,2.77,2.77,0,0,1,.49,1.76v3.47h-0.51Z" transform="translate(-898.09 -2064.43)"/><path class="cls-3" d="M961.81,2078.19v-1h0a2.11,2.11,0,0,1-.83.86,2.39,2.39,0,0,1-1.22.32,2.15,2.15,0,0,1-1.72-.78,3.17,3.17,0,0,1-.66-2.11,3.76,3.76,0,0,1,.33-1.59,2.58,2.58,0,0,1,.92-1.1,2.41,2.41,0,0,1,1.36-.39,1.89,1.89,0,0,1,1.82,1.05h0v-3.65h0.51v8.43h-0.51Zm0-3.47a1.88,1.88,0,0,0-.52-1.36,1.78,1.78,0,0,0-1.34-.54,1.84,1.84,0,0,0-1.49.7,2.85,2.85,0,0,0-.58,1.87,2.9,2.9,0,0,0,.51,1.8,1.63,1.63,0,0,0,1.37.67,2,2,0,0,0,1.48-.58,2.05,2.05,0,0,0,.56-1.5v-1.06Z" transform="translate(-898.09 -2064.43)"/><path class="cls-3" d="M966.32,2078.33a2.52,2.52,0,0,1-2-.81,3.08,3.08,0,0,1-.73-2.14,3.13,3.13,0,0,1,.75-2.21,2.6,2.6,0,0,1,2-.81,2.43,2.43,0,0,1,1.92.8,3.21,3.21,0,0,1,.71,2.2,3.11,3.11,0,0,1-.73,2.16A2.5,2.5,0,0,1,966.32,2078.33Zm0-5.51a2,2,0,0,0-1.61.68,2.76,2.76,0,0,0-.6,1.88,2.63,2.63,0,0,0,.59,1.8,2,2,0,0,0,1.59.67,2,2,0,0,0,1.58-.67,3.39,3.39,0,0,0,0-3.72A2,2,0,0,0,966.36,2072.82Z" transform="translate(-898.09 -2064.43)"/><path class="cls-3" d="M975.14,2078.19h-0.48l-1.24-4.29a4.33,4.33,0,0,1-.09-0.48h0a2.57,2.57,0,0,1-.11.47l-1.39,4.31h-0.48l-1.72-5.7h0.57l1.32,4.55a2.41,2.41,0,0,1,.08.48h0a3.37,3.37,0,0,1,.11-0.48l1.45-4.55h0.35l1.29,4.55a3.58,3.58,0,0,1,.08.48h0A2,2,0,0,1,975,2077l1.35-4.55h0.53Z" transform="translate(-898.09 -2064.43)"/><path class="cls-3" d="M977.62,2077.94v-0.62a2.21,2.21,0,0,0,.68.38,2.13,2.13,0,0,0,.74.16,1.09,1.09,0,0,0,1.34-1.1,0.84,0.84,0,0,0-.27-0.62,3.45,3.45,0,0,0-1-.58,3.34,3.34,0,0,1-1.13-.7,1.34,1.34,0,0,1-.35-1,1.39,1.39,0,0,1,.53-1.12,2,2,0,0,1,1.32-.44,2.5,2.5,0,0,1,1.26.3v0.58a2.4,2.4,0,0,0-1.31-.41,1.35,1.35,0,0,0-.9.29,1,1,0,0,0-.35.76,1.05,1.05,0,0,0,.1.51,1.1,1.1,0,0,0,.35.35,4.5,4.5,0,0,0,.72.38,4,4,0,0,1,1.23.75,1.27,1.27,0,0,1,.32.9,1.4,1.4,0,0,1-.52,1.13,2.12,2.12,0,0,1-1.39.43A2.31,2.31,0,0,1,977.62,2077.94Z" transform="translate(-898.09 -2064.43)"/><path class="cls-3" d="M940.14,2085.39v3.2h-0.55v-8h1.92a2.78,2.78,0,0,1,1.89.57,2.1,2.1,0,0,1,.65,1.67,2.4,2.4,0,0,1-.75,1.85,2.84,2.84,0,0,1-2,.7h-1.15Zm0-4.27v3.77h1.13a2.36,2.36,0,0,0,1.64-.51,1.88,1.88,0,0,0,.56-1.46q0-1.8-2.06-1.8h-1.27Z" transform="translate(-898.09 -2064.43)"/><path class="cls-3" d="M949.44,2088.59v-3.42a2.41,2.41,0,0,0-.37-1.48,1.36,1.36,0,0,0-1.15-.47,1.69,1.69,0,0,0-.94.28,1.86,1.86,0,0,0-.66.78,2.66,2.66,0,0,0-.24,1.15v3.15h-0.51v-8.43h0.51v3.76h0a2.15,2.15,0,0,1,2-1.16,1.71,1.71,0,0,1,1.41.59,2.66,2.66,0,0,1,.48,1.71v3.53h-0.51Z" transform="translate(-898.09 -2064.43)"/><path class="cls-3" d="M953.83,2088.73a2.52,2.52,0,0,1-2-.81,3.08,3.08,0,0,1-.73-2.14,3.13,3.13,0,0,1,.75-2.21,2.6,2.6,0,0,1,2-.81,2.44,2.44,0,0,1,1.92.8,3.21,3.21,0,0,1,.71,2.2,3.11,3.11,0,0,1-.73,2.16A2.5,2.5,0,0,1,953.83,2088.73Zm0-5.51a2,2,0,0,0-1.61.68,2.76,2.76,0,0,0-.6,1.88,2.63,2.63,0,0,0,.59,1.8,2,2,0,0,0,1.59.67,2,2,0,0,0,1.58-.67,3.4,3.4,0,0,0,0-3.72A2,2,0,0,0,953.87,2083.22Z" transform="translate(-898.09 -2064.43)"/><path class="cls-3" d="M961.7,2088.59v-3.32q0-2.05-1.48-2.05a1.72,1.72,0,0,0-1.35.6,2.17,2.17,0,0,0-.53,1.5v3.27h-0.51v-5.7h0.51v1h0a2.06,2.06,0,0,1,1.95-1.17,1.7,1.7,0,0,1,1.42.61,2.77,2.77,0,0,1,.49,1.76v3.47H961.7Z" transform="translate(-898.09 -2064.43)"/><path class="cls-3" d="M963.93,2085.77a2.8,2.8,0,0,0,.55,1.84,1.83,1.83,0,0,0,1.49.66,3,3,0,0,0,1.87-.71v0.55a3.34,3.34,0,0,1-2,.63,2.2,2.2,0,0,1-1.79-.81,3.82,3.82,0,0,1-.34-3.72,2.59,2.59,0,0,1,.92-1.07,2.33,2.33,0,0,1,1.3-.38,1.94,1.94,0,0,1,1.62.73,3.23,3.23,0,0,1,.58,2v0.23h-4.22Zm3.68-.47a2.51,2.51,0,0,0-.48-1.53,1.48,1.48,0,0,0-1.21-.54,1.77,1.77,0,0,0-1.33.54,2.59,2.59,0,0,0-.65,1.54h3.66Z" transform="translate(-898.09 -2064.43)"/></svg>